<svg width="157" height="157" viewBox="0 0 157 157" fill="none" xmlns="http://www.w3.org/2000/svg">
<path d="M48.9304 104.668C48.0692 104.649 47.2487 104.297 46.6408 103.687C46.3502 103.383 46.1248 103.024 45.9785 102.63C45.8322 102.236 45.7682 101.816 45.7904 101.397V85.0428H42.3233C41.4558 85.0428 40.6239 84.6982 40.0105 84.0848C39.3971 83.4714 39.0525 82.6395 39.0525 81.772C39.0524 81.3369 39.1391 80.9061 39.3076 80.505C39.476 80.1038 39.7228 79.7403 40.0335 79.4357C40.3442 79.1311 40.7125 78.8916 41.1169 78.7311C41.5214 78.5706 41.9537 78.4924 42.3887 78.5011H45.7904V71.9595H42.3887C41.9201 71.9553 41.4574 71.8544 41.0297 71.663C40.6019 71.4717 40.2183 71.194 39.9029 70.8474C39.6098 70.484 39.3947 70.0641 39.2709 69.6139C39.1471 69.1637 39.1173 68.6929 39.1833 68.2307C39.2796 67.4503 39.6593 66.7325 40.2504 66.2139C40.8414 65.6952 41.6024 65.4119 42.3887 65.4178H45.7904V32.7095H71.9571C73.1106 32.6099 74.2706 32.6099 75.4242 32.7095C77.6885 32.8831 79.9037 33.459 81.9658 34.4103C83.6998 35.3211 85.2696 36.515 86.6104 37.9428C89.8273 42.0165 91.3711 47.1628 90.9279 52.3345C91.0036 57.854 89.0479 63.2087 85.4329 67.3803C84.6125 68.1009 83.7377 68.757 82.8162 69.3428C80.8501 70.6181 78.6068 71.4033 76.2746 71.6324H75.555C74.6185 71.6973 73.6786 71.6973 72.7421 71.6324H52.3321V78.1741H75.2279C76.0954 78.1741 76.9273 78.5187 77.5407 79.1321C78.1541 79.7455 78.4987 80.5774 78.4987 81.4449C78.4987 82.3124 78.1541 83.1443 77.5407 83.7577C76.9273 84.3711 76.0954 84.7157 75.2279 84.7157H52.3321V101.07C52.3795 101.537 52.3257 102.009 52.1743 102.454C52.0229 102.899 51.7775 103.306 51.4547 103.647C51.1319 103.989 50.7394 104.257 50.3038 104.433C49.8682 104.609 49.3998 104.689 48.9304 104.668ZM52.3321 39.2511V65.4178H72.8729H74.9662H75.6858C76.9653 65.3356 78.2032 64.9305 79.2837 64.2403C79.968 63.8587 80.6048 63.3976 81.1808 62.8666C83.4492 59.8393 84.5836 56.1122 84.3862 52.3345C84.611 48.7959 83.5155 45.2996 81.3117 42.522C80.4844 41.687 79.5361 40.9813 78.4987 40.4286C77.3166 39.8076 76.0306 39.4085 74.7046 39.2511C73.7906 39.1691 72.8711 39.1691 71.9571 39.2511H52.3321Z" fill="#6D00B3"/>
<path d="M68.6869 130.833C58.2463 130.794 47.9816 128.141 38.8291 123.117C29.6765 118.094 21.9274 110.858 16.2885 102.072C10.6495 93.2846 7.30017 83.2258 6.54597 72.8124C5.79176 62.399 7.65668 51.9625 11.9706 42.4548C17.7473 28.693 28.693 17.7473 42.4548 11.9706C51.9625 7.65668 62.399 5.79176 72.8124 6.54597C83.2258 7.30017 93.2846 10.6495 102.072 16.2885C110.858 21.9274 118.094 29.6765 123.117 38.8291C128.141 47.9816 130.794 58.2463 130.833 68.6869C130.848 76.104 129.518 83.4625 126.908 90.4052L120.824 88.1156C125.66 75.0962 125.66 60.773 120.824 47.7535C118.41 41.1276 114.663 35.0673 109.813 29.9477C104.963 24.828 99.1149 20.7578 92.6294 17.989C82.159 13.117 70.4407 11.5933 59.0725 13.6257C47.7044 15.6582 37.24 21.1477 29.1063 29.3458C20.9726 37.5439 15.5657 48.0513 13.623 59.4351C11.6802 70.8189 13.2962 82.5248 18.2506 92.9565C21.1181 99.46 25.3012 105.299 30.5364 110.107C35.7716 114.914 41.9455 118.585 48.6694 120.889C61.6699 125.566 75.9125 125.45 88.8352 120.562L91.1902 126.646C84.0093 129.41 76.3813 130.829 68.6869 130.833Z" fill="#6D00B3"/>
<path d="M102.444 120.824L98.9111 115.395C100.904 114.104 102.826 112.706 104.668 111.208L108.854 116.18C106.823 117.869 104.682 119.421 102.444 120.824Z" fill="#6D00B3"/>
<path d="M117.749 150.459C117.145 150.445 116.556 150.264 116.049 149.935L85.041 131.292V114.479H102.704V85.042H132.73V114.479H150.458V131.422L119.516 150.001C118.988 150.332 118.371 150.492 117.749 150.459ZM91.5827 127.563L117.749 143.328L143.916 127.628V121.087H126.188V91.5837H109.245V121.021H91.5827V127.563Z" fill="#A9CC31"/>
</svg>
