<svg width="157" height="157" viewBox="0 0 157 157" fill="none" xmlns="http://www.w3.org/2000/svg">
<path d="M63.5194 131.834C45.1591 131.834 26.8861 131.834 8.70023 131.834C8.27372 131.834 7.85149 131.749 7.45827 131.584C7.06504 131.418 6.70873 131.176 6.41021 130.872C6.11169 130.567 5.87696 130.206 5.71977 129.81C5.56259 129.413 5.4861 128.989 5.49481 128.563V113.059C5.49481 104.947 5.49481 103.508 6.73772 101.153C10.0086 95.2003 16.7465 93.8266 27.9327 91.537C32.2502 90.6212 35.7173 90.1632 38.5302 89.8362C43.829 89.1166 45.7261 88.7895 46.8381 87.2849C47.595 86.0189 48.0894 84.6136 48.2917 83.1526C48.494 81.6915 48.4001 80.2047 48.0156 78.7807C41.7245 73.1167 36.956 65.9639 34.1473 57.9782C32.054 52.0907 26.559 36.4562 35.7173 22.6532C38.8259 18.0238 43.0208 14.2261 47.9357 11.5919C52.8505 8.95774 58.3357 7.56727 63.9119 7.54199C69.6892 7.56489 75.3662 9.05323 80.4117 11.8677C85.4571 14.6822 89.706 18.7307 92.7606 23.6345C101.069 36.7178 96.3586 51.2403 94.069 58.1745C91.382 66.0877 86.9046 73.2738 80.9856 79.1732C80.5287 80.5665 80.357 82.0375 80.4806 83.4985C80.6042 84.9595 81.0207 86.3807 81.7052 87.6774C82.7519 89.1166 84.5836 89.4436 89.6861 90.0324C92.6298 90.3595 96.2277 90.8174 100.807 91.7332C105.458 92.4794 110.034 93.6397 114.479 95.2003L112.059 101.219C107.965 99.8449 103.764 98.8164 99.4986 98.1441C95.1811 97.2937 91.714 96.8357 88.9011 96.5087C83.079 95.7891 79.2194 95.3312 76.4065 91.537C75.0466 89.3255 74.2049 86.835 73.9443 84.252C73.6837 81.669 74.0111 79.0605 74.9019 76.622C75.0284 76.0467 75.3247 75.5225 75.7523 75.1174C81.2003 69.8404 85.3052 63.3354 87.7236 56.1466C89.8823 49.6049 93.8073 37.7645 87.1348 27.1016C84.659 23.1798 81.2456 19.9361 77.2027 17.6634C73.1598 15.3907 68.6146 14.1605 63.9773 14.0837C59.4685 14.0983 55.0316 15.2145 51.0526 17.3351C47.0736 19.4557 43.6731 22.5165 41.1469 26.2512C33.8202 37.372 38.334 50.3245 40.2965 55.8195C42.9565 63.1059 47.4651 69.5757 53.3798 74.5941C53.9092 75.0552 54.2762 75.6745 54.4265 76.3603C55.1929 78.8369 55.4027 81.4522 55.0408 84.0193C54.679 86.5863 53.7544 89.0417 52.3331 91.2099C49.4548 95.0041 45.7915 95.5274 39.6423 96.3124C36.9602 96.3124 33.624 97.0974 29.5027 97.9478C19.4286 99.9757 14.5223 101.153 12.7561 104.489C12.2981 105.274 12.2981 106.321 12.2981 113.255V125.292C42.7823 125.292 73.7244 125.292 104.274 125.292V131.834H63.5194Z" fill="#6D00B3"/>
<path d="M138.815 151.458C138.267 151.466 137.725 151.331 137.245 151.065L117.751 140.337L98.126 150.934C97.5774 151.254 96.9462 151.404 96.3126 151.364C95.6789 151.324 95.0713 151.097 94.5668 150.712C94.0622 150.327 93.6835 149.8 93.4786 149.199C93.2738 148.598 93.252 147.95 93.416 147.337C94.3318 143.15 95.3785 139.225 96.4252 135.3C97.4718 131.375 98.1914 128.758 99.0418 125.095C97.0793 122.74 95.0514 120.189 93.0889 117.703C91.1264 115.217 88.4443 111.815 86.5472 109.199C85.9487 108.851 85.4787 108.319 85.2075 107.683C84.9363 107.046 84.8785 106.338 85.0427 105.666C85.3142 105.098 85.7408 104.619 86.2733 104.283C86.8058 103.947 87.4224 103.769 88.0518 103.769H106.303C108.724 98.8628 111.209 94.022 114.284 87.9382C114.547 87.2649 115.038 86.7057 115.672 86.3588C116.306 86.0119 117.042 85.8994 117.751 86.0411C118.355 86.0445 118.945 86.2182 119.454 86.5422C119.963 86.8663 120.371 87.3275 120.629 87.8728L125.994 98.6011L128.545 103.704H147.45C148.064 103.721 148.661 103.908 149.176 104.244C149.69 104.58 150.102 105.051 150.366 105.606C150.63 106.16 150.736 106.777 150.671 107.388C150.607 107.999 150.375 108.58 150.001 109.068L136.918 124.833L142.021 147.337C142.165 147.947 142.131 148.586 141.922 149.178C141.713 149.769 141.339 150.288 140.843 150.673C140.279 151.163 139.562 151.44 138.815 151.458ZM117.751 133.337C118.278 133.334 118.797 133.47 119.256 133.73L134.171 141.842L130.311 124.833C130.187 124.346 130.182 123.837 130.296 123.347C130.409 122.858 130.639 122.403 130.965 122.02L140.451 110.311H126.19C125.577 110.312 124.976 110.141 124.455 109.817C123.935 109.493 123.516 109.03 123.246 108.479L119.779 101.937L117.359 97.0311C115.2 101.218 113.368 104.947 111.471 108.806C111.201 109.357 110.782 109.82 110.262 110.144C109.741 110.468 109.14 110.639 108.527 110.638H95.1168L97.6681 113.909C100.023 116.852 102.313 119.796 104.537 122.413C104.857 122.8 105.087 123.252 105.212 123.739C105.336 124.225 105.351 124.733 105.256 125.226C104.275 129.412 103.229 133.337 102.182 137.262C101.789 138.832 101.397 140.402 100.939 142.038L115.985 133.992C116.497 133.605 117.111 133.378 117.751 133.337Z" fill="#A9CC31"/>
</svg>
