<svg width="156" height="157" viewBox="0 0 156 157" fill="none" xmlns="http://www.w3.org/2000/svg">
<path d="M127.071 130.721H116.797V124.176H123.865V54.4786L68.2374 13.7071L12.61 54.4786V124.176H102.726V130.721H9.33783C8.46999 130.721 7.63769 130.376 7.02403 129.762C6.41038 129.149 6.06563 128.316 6.06563 127.449V52.8425C6.05495 52.3327 6.16854 51.828 6.39658 51.3719C6.62462 50.9158 6.96026 50.5221 7.37451 50.2248L66.274 7.03177C66.8303 6.61236 67.508 6.3855 68.2046 6.3855C68.9013 6.3855 69.579 6.61236 70.1352 7.03177L129.035 50.2248C129.457 50.5188 129.802 50.9102 130.042 51.3658C130.281 51.8214 130.407 52.3279 130.409 52.8425V127.383C130.418 127.824 130.338 128.262 130.173 128.671C130.009 129.08 129.763 129.451 129.451 129.763C129.14 130.075 128.768 130.32 128.359 130.485C127.95 130.649 127.512 130.73 127.071 130.721Z" fill="#6D00B3"/>
<path d="M45.3313 88.836C44.6115 92.5008 44.4151 93.2862 44.0225 94.7914V95.1186C43.8044 96.0695 43.2456 96.9076 42.4518 97.4746C41.8971 97.815 41.2686 98.0171 40.6194 98.0636H40.1613C39.3364 97.7984 38.6377 97.2395 38.198 96.4929C37.7013 95.5728 37.5394 94.5088 37.7399 93.4825C37.9761 92.4669 38.5255 91.5511 39.3105 90.8647C41.2975 89.6825 43.5453 89.0082 45.8549 88.9014L45.3313 88.836ZM56.4568 52.1874C55.6583 52.2034 54.8921 52.5053 54.2972 53.0381C53.8771 53.3964 53.5418 53.8435 53.3155 54.347L47.1638 81.768H46.5093C42.4175 81.9677 38.4577 83.2801 35.0567 85.5638C33.0773 87.2296 31.7445 89.5366 31.2901 92.0834C30.8357 94.6303 31.2886 97.2558 32.5698 99.5033C33.194 100.733 34.0703 101.817 35.1415 102.685C36.2127 103.554 37.4549 104.186 38.787 104.543C39.482 104.634 40.1861 104.634 40.8812 104.543C42.8177 104.509 44.7035 103.918 46.313 102.841C48.4601 101.391 49.9978 99.2011 50.6323 96.6893C51.0904 94.8568 51.2867 94.2024 52.203 89.8176V88.7051C52.792 85.9565 53.3809 83.7968 53.4464 83.4041C53.9045 81.7026 55.3443 75.2236 59.6636 55.9177C59.7879 55.3573 59.7879 54.7765 59.6636 54.2161C59.4431 53.7027 59.1019 53.2501 58.6689 52.8968C58.2359 52.5436 57.724 52.3002 57.1767 52.1874H56.4568Z" fill="#6D00B3"/>
<path d="M55.9986 88.836C58.1721 89.0578 60.2713 89.75 62.1504 90.8647C62.9303 91.582 63.4774 92.5167 63.721 93.5479C63.8863 94.5533 63.7257 95.5852 63.2629 96.4929C63.0554 96.8712 62.7751 97.2048 62.4381 97.4743C62.1012 97.7439 61.7142 97.9442 61.2996 98.0636H60.776C60.1268 98.0171 59.4983 97.815 58.9436 97.4746C58.1729 96.8725 57.6025 96.0511 57.3075 95.1186V94.7259C56.9149 93.2207 56.784 92.4354 56.0641 88.7705L55.9986 88.836ZM45.3313 52.1874H44.6768C44.2082 52.3237 43.7736 52.5574 43.4015 52.8731C43.0293 53.1889 42.728 53.5796 42.5172 54.0198C42.2791 54.5312 42.1669 55.0922 42.19 55.6559C46.3129 75.2891 47.6873 81.5063 48.0799 83.2078C48.0799 83.6659 48.7344 85.7601 49.2579 88.5742C49.2579 88.5742 49.2579 88.5742 49.2579 89.6867C50.1087 94.0715 50.2396 94.6605 50.6977 96.5584C51.34 99.0841 52.8741 101.292 55.017 102.776C56.6467 103.861 58.556 104.452 60.5143 104.477C61.1671 104.541 61.8247 104.541 62.4776 104.477C63.7505 104.168 64.9469 103.602 65.9935 102.815C67.04 102.027 67.9147 101.034 68.5639 99.896C69.8601 97.6629 70.3341 95.0466 69.9038 92.5007C69.4735 89.9547 68.166 87.6395 66.2079 85.9564C62.8363 83.6435 58.9013 82.2866 54.8206 82.0298H54.1662L48.2763 54.5434C48.0499 54.0398 47.7146 53.5928 47.2946 53.2345C46.7792 52.6712 46.0862 52.3016 45.3313 52.1874Z" fill="#6D00B3"/>
<path d="M80.344 104.543C79.4902 104.548 78.6682 104.219 78.0534 103.626C77.4387 102.994 77.0877 102.152 77.0718 101.27V55.4596C77.0718 54.5917 77.4165 53.7594 78.0302 53.1458C78.6438 52.5321 79.4761 52.1874 80.344 52.1874H92.8438C93.7116 52.1874 94.5439 52.5321 95.1576 53.1458C95.7712 53.7594 96.116 54.5917 96.116 55.4596C96.116 56.3274 95.7712 57.1597 95.1576 57.7734C94.5439 58.387 93.7116 58.7318 92.8438 58.7318H83.6162V97.9981H86.6266C87.4892 98.0149 88.3118 98.365 88.9218 98.9751C89.5319 99.5851 89.882 100.408 89.8988 101.27C89.8988 102.138 89.554 102.97 88.9404 103.584C88.3267 104.198 87.4944 104.543 86.6266 104.543H80.344Z" fill="#6D00B3"/>
<path d="M92.8438 81.8991H80.344C79.4814 81.8824 78.6588 81.5322 78.0487 80.9222C77.4387 80.3121 77.0885 79.4895 77.0718 78.6269C77.0718 77.7591 77.4165 76.9268 78.0302 76.3131C78.6438 75.6995 79.4761 75.3547 80.344 75.3547H92.8438C93.7116 75.3547 94.5439 75.6995 95.1576 76.3131C95.7712 76.9268 96.116 77.7591 96.116 78.6269C96.116 79.4948 95.7712 80.3271 95.1576 80.9407C94.5439 81.5544 93.7116 81.8991 92.8438 81.8991Z" fill="#6D00B3"/>
<path d="M92.8438 70.5771H80.344C79.4761 70.5771 78.6438 70.2324 78.0302 69.6187C77.4165 69.005 77.0718 68.1727 77.0718 67.3049C77.0718 66.4371 77.4165 65.6048 78.0302 64.9911C78.6438 64.3775 79.4761 64.0327 80.344 64.0327H92.8438C93.7116 64.0327 94.5439 64.3775 95.1576 64.9911C95.7712 65.6048 96.116 66.4371 96.116 67.3049C96.116 68.1727 95.7712 69.005 95.1576 69.6187C94.5439 70.2324 93.7116 70.5771 92.8438 70.5771Z" fill="#6D00B3"/>
<path d="M91.6003 93.1546H80.344C79.4761 93.1546 78.6438 92.8099 78.0302 92.1962C77.4165 91.5826 77.0718 90.7503 77.0718 89.8824C77.0885 89.0198 77.4387 88.1972 78.0487 87.5872C78.6588 86.9771 79.4814 86.627 80.344 86.6102H91.6003C92.4682 86.6102 93.3005 86.955 93.9141 87.5686C94.5278 88.1823 94.8725 89.0146 94.8725 89.8824C94.8725 90.7503 94.5278 91.5826 93.9141 92.1962C93.3005 92.8099 92.4682 93.1546 91.6003 93.1546Z" fill="#6D00B3"/>
<path d="M96.9031 91.7798C97.7837 91.8915 98.6323 92.1812 99.3973 92.6313C100.162 93.0813 100.828 93.6822 101.353 94.3975C102.414 95.488 103.16 96.8446 103.513 98.3242C101.583 100.067 100.216 102.345 99.5863 104.869C97.7539 113.376 104.495 119.986 109.926 125.287C114.348 130.948 120.806 134.658 127.924 135.627C128.729 135.692 129.539 135.692 130.345 135.627C132.825 135.1 135.112 133.9 136.955 132.159C138.627 132.526 140.127 133.449 141.209 134.776C142.288 135.757 142.945 137.117 143.041 138.572C143.041 140.143 140.881 142.237 138.525 143.284C137.257 143.879 135.868 144.17 134.468 144.135C124.324 144.135 110.777 132.944 106.458 128.625C102.139 124.305 86.8248 106.374 91.4059 96.6881C91.8208 95.5754 92.4847 94.5724 93.3467 93.7558C94.2088 92.9391 95.2462 92.3303 96.3796 91.9761L96.9031 91.7798ZM96.3796 85.4317H95.7906C93.4585 85.8479 91.2719 86.8543 89.4389 88.355C87.606 89.8557 86.1878 91.8008 85.3196 94.0049C78.3171 109.711 100.568 132.159 101.681 133.271C102.793 134.384 119.612 150.679 134.403 150.679C136.66 150.658 138.889 150.168 140.947 149.24C143.246 148.481 145.3 147.122 146.899 145.305C148.498 143.487 149.584 141.276 150.044 138.899C149.879 135.444 148.458 132.167 146.048 129.685C143.638 127.202 140.404 125.685 136.955 125.418H136.039C132.701 125.876 132.505 128.559 128.905 129.214H127.596C122.884 129.214 118.5 124.96 114.18 120.706C109.861 116.452 104.56 111.348 105.673 106.374C106.327 103.102 109.076 103.036 109.73 99.8294C109.782 96.1836 108.468 92.6503 106.045 89.9251C103.623 87.1999 100.268 85.4802 96.6414 85.1045L96.3796 85.4317Z" fill="#A9CC31"/>
</svg>
