<svg width="157" height="157" viewBox="0 0 157 157" fill="none" xmlns="http://www.w3.org/2000/svg">
<path d="M85.0432 42.7166V49.2583C86.5629 49.3079 88.056 49.6704 89.4292 50.3233C90.8024 50.9761 92.0262 51.9052 93.024 53.0524C94.2684 54.7415 94.9545 56.7768 94.9865 58.8745C94.3311 68.0705 90.8592 76.8414 85.0432 83.9945C79.377 76.7604 75.9442 68.0305 75.1653 58.8745C75.2018 56.8384 75.839 54.8585 76.9969 53.1833C77.9981 52.0133 79.2288 51.0612 80.6129 50.3861C81.9969 49.7109 83.5048 49.3271 85.0432 49.2583V42.7166ZM85.0432 42.7166C82.5174 42.7876 80.0377 43.4099 77.7777 44.5399C75.5177 45.6699 73.5321 47.2803 71.9598 49.2583C69.9097 51.9282 68.7639 55.1821 68.689 58.5474C67.5769 73.397 82.6228 92.3025 85.0432 95.2462C87.2673 92.4987 102.771 73.4625 101.397 58.5474C101.342 55.0784 100.198 51.7145 98.1265 48.9312C96.5542 46.9532 94.5686 45.3428 92.3086 44.2128C90.0486 43.0828 87.5689 42.4605 85.0432 42.3895V42.7166Z" fill="#6D00B3"/>
<path d="M90.2087 111.209H42.6508C42.1727 111.224 41.6978 111.126 41.2655 110.921C40.8332 110.716 40.4559 110.411 40.165 110.031C39.8485 109.682 39.6184 109.263 39.4935 108.809C39.3685 108.354 39.352 107.877 39.4454 107.415L52.5287 28.9147C52.6523 28.1518 53.0421 27.4574 53.6288 26.9545C54.2155 26.4516 54.9614 26.1727 55.7341 26.1672H114.609C115.386 26.1592 116.139 26.4334 116.728 26.9387C117.318 27.444 117.704 28.1461 117.815 28.9147C119.057 36.3722 120.3 47.5584 121.478 58.4176C122.655 69.2768 123.898 80.2668 125.141 87.528L118.6 88.6401C117.357 81.1826 116.114 69.9963 114.936 59.1372C113.89 49.6517 112.777 39.8392 111.731 32.9705H58.4816L46.5104 104.667H90.2087V111.209Z" fill="#6D00B3"/>
<path d="M49.0625 117.75C49.7094 117.75 50.3418 117.942 50.8797 118.301C51.4176 118.66 51.8368 119.171 52.0844 119.769C52.3319 120.366 52.3967 121.024 52.2705 121.659C52.1443 122.293 51.8328 122.876 51.3753 123.333C50.9179 123.791 50.3351 124.102 49.7006 124.229C49.0661 124.355 48.4085 124.29 47.8108 124.042C47.2131 123.795 46.7023 123.376 46.3429 122.838C45.9835 122.3 45.7917 121.667 45.7917 121.021C45.7917 120.153 46.1363 119.321 46.7497 118.708C47.3631 118.094 48.195 117.75 49.0625 117.75ZM49.0625 111.208C47.1218 111.208 45.2246 111.784 43.611 112.862C41.9973 113.94 40.7396 115.472 39.9969 117.265C39.2543 119.058 39.0599 121.031 39.4385 122.935C39.8172 124.838 40.7517 126.587 42.124 127.959C43.4963 129.331 45.2447 130.266 47.1482 130.644C49.0516 131.023 51.0246 130.829 52.8176 130.086C54.6106 129.343 56.1431 128.086 57.2213 126.472C58.2995 124.858 58.875 122.961 58.875 121.021C58.875 118.418 57.8412 115.922 56.001 114.082C54.1608 112.242 51.6649 111.208 49.0625 111.208Z" fill="#6D00B3"/>
<path d="M85.0397 13.0837C87.4524 13.1677 89.7584 14.0989 91.5528 15.7139C93.3472 17.3289 94.5154 19.5244 94.8522 21.9149V26.167H75.2272V21.9803C75.5743 19.5883 76.7436 17.3917 78.5343 15.7682C80.325 14.1446 82.6252 13.1954 85.0397 13.0837ZM85.0397 6.54199C80.9871 6.6737 77.1172 8.26005 74.1382 11.0109C71.1592 13.7617 69.27 17.493 68.8164 21.5224V27.5407C68.8164 28.7837 68.8164 30.4191 68.8164 32.6432H101.525C101.525 30.4191 101.525 28.6528 101.525 27.4099C101.525 26.167 101.525 24.7278 101.525 22.3728C101.544 22.0678 101.544 21.762 101.525 21.457C101.063 17.3904 99.1342 13.6317 96.0993 10.8859C93.0644 8.14002 89.1321 6.59552 85.0397 6.54199Z" fill="#6D00B3"/>
<path d="M35.9812 52.3337H25.5145C24.647 52.3337 23.8151 51.9891 23.2017 51.3757C22.5883 50.7623 22.2437 49.9303 22.2437 49.0628C22.2437 48.1954 22.5883 47.3634 23.2017 46.75C23.8151 46.1366 24.647 45.792 25.5145 45.792H35.9812C36.8486 45.792 37.6806 46.1366 38.294 46.75C38.9074 47.3634 39.252 48.1954 39.252 49.0628C39.252 49.9303 38.9074 50.7623 38.294 51.3757C37.6806 51.9891 36.8486 52.3337 35.9812 52.3337Z" fill="#6D00B3"/>
<path d="M30.7448 78.4997H20.2127C19.3452 78.4997 18.5133 78.1551 17.8999 77.5417C17.2865 76.9283 16.9419 76.0963 16.9419 75.2288C16.9419 74.3614 17.2865 73.5294 17.8999 72.916C18.5133 72.3026 19.3452 71.958 20.2127 71.958H30.7448C31.6123 71.958 32.4442 72.3026 33.0576 72.916C33.671 73.5294 34.0156 74.3614 34.0156 75.2288C33.9989 76.0911 33.6489 76.9133 33.0391 77.5231C32.4293 78.1329 31.607 78.4829 30.7448 78.4997Z" fill="#6D00B3"/>
<path d="M35.9785 65.4167H9.81185C8.94437 65.4167 8.11242 65.0721 7.49902 64.4587C6.88562 63.8453 6.54102 63.0133 6.54102 62.1458C6.54102 61.2784 6.88562 60.4464 7.49902 59.833C8.11242 59.2196 8.94437 58.875 9.81185 58.875H35.9785C36.846 58.875 37.6779 59.2196 38.2913 59.833C38.9047 60.4464 39.2493 61.2784 39.2493 62.1458C39.2493 63.0133 38.9047 63.8453 38.2913 64.4587C37.6779 65.0721 36.846 65.4167 35.9785 65.4167Z" fill="#6D00B3"/>
<path d="M117.749 91.5837C122.925 91.5837 127.984 93.1183 132.287 95.9935C136.59 98.8688 139.944 102.955 141.924 107.737C143.905 112.518 144.423 117.779 143.413 122.855C142.404 127.931 139.911 132.593 136.252 136.253C132.593 139.912 127.93 142.405 122.854 143.414C117.778 144.424 112.517 143.906 107.736 141.925C102.954 139.945 98.8678 136.591 95.9926 132.288C93.1173 127.985 91.5827 122.926 91.5827 117.75C91.5827 110.81 94.3395 104.155 99.2467 99.2477C104.154 94.3405 110.81 91.5837 117.749 91.5837ZM117.749 85.042C111.28 85.042 104.956 86.9603 99.5776 90.5543C94.1987 94.1484 90.0064 99.2567 87.5308 105.233C85.0552 111.21 84.4075 117.787 85.6695 124.131C86.9316 130.476 90.0467 136.304 94.6211 140.879C99.1954 145.453 105.023 148.568 111.368 149.83C117.713 151.092 124.29 150.444 130.266 147.969C136.243 145.493 141.351 141.301 144.945 135.922C148.539 130.543 150.458 124.219 150.458 117.75C150.458 113.455 149.612 109.202 147.968 105.233C146.324 101.265 143.915 97.6593 140.878 94.622C137.84 91.5848 134.235 89.1755 130.266 87.5318C126.298 85.888 122.045 85.042 117.749 85.042Z" fill="#A9CC31"/>
<path d="M112.451 131.618C111.968 131.621 111.492 131.51 111.06 131.294C110.628 131.078 110.253 130.763 109.965 130.375L101.919 120.367C101.653 120.027 101.456 119.639 101.34 119.223C101.223 118.808 101.19 118.374 101.242 117.945C101.294 117.517 101.429 117.103 101.641 116.727C101.852 116.351 102.136 116.021 102.475 115.755C103.16 115.217 104.031 114.973 104.896 115.078C105.324 115.129 105.738 115.265 106.114 115.476C106.49 115.688 106.821 115.971 107.087 116.311L112.517 122.852L127.693 104.994C128.257 104.334 129.06 103.926 129.925 103.859C130.79 103.791 131.646 104.07 132.305 104.634C132.964 105.198 133.373 106 133.44 106.865C133.508 107.73 133.229 108.586 132.665 109.246L114.937 130.114C114.683 130.554 114.322 130.923 113.888 131.186C113.453 131.449 112.959 131.598 112.451 131.618Z" fill="#A9CC31"/>
</svg>
