<svg width="157" height="157" viewBox="0 0 157 157" fill="none" xmlns="http://www.w3.org/2000/svg">
<path d="M93.3891 137.432H22.9059C20.7463 137.432 18.6081 137.005 16.6145 136.175C14.6209 135.344 12.8114 134.127 11.2905 132.594C9.76947 131.061 8.56707 129.242 7.75259 127.242C6.93812 125.242 6.52768 123.1 6.54496 120.94V29.319C6.57949 25.0025 8.31846 20.8745 11.383 17.8345C14.4476 14.7945 18.5893 13.0887 22.9059 13.0889H114.527C116.682 13.0888 118.814 13.5142 120.804 14.3405C122.793 15.1668 124.6 16.3778 126.12 17.904C127.64 19.4302 128.844 21.2416 129.662 23.2341C130.48 25.2267 130.897 27.3612 130.888 29.5153V92.0143H124.344V29.5153C124.353 28.2151 124.103 26.9262 123.61 25.7233C123.116 24.5205 122.388 23.4276 121.469 22.5083C120.55 21.5889 119.457 20.8613 118.254 20.3678C117.051 19.8742 115.762 19.6246 114.462 19.6333H22.9059C21.6113 19.6332 20.3294 19.8893 19.1341 20.3867C17.9388 20.8841 16.8537 21.6131 15.9413 22.5316C15.0289 23.4501 14.3072 24.54 13.8177 25.7385C13.3283 26.9371 13.0807 28.2207 13.0894 29.5153V121.137C13.1066 123.729 14.1485 126.209 15.9876 128.036C17.8267 129.863 20.3137 130.888 22.9059 130.888H93.3891V137.432Z" fill="#6D00B3"/>
<path d="M29.3845 26.1776C28.528 26.1605 27.7125 25.8082 27.1129 25.1964C26.5133 24.5846 26.1776 23.762 26.1777 22.9054V9.81663C26.1777 8.94879 26.5225 8.11649 27.1361 7.50284C27.7498 6.88918 28.5821 6.54443 29.4499 6.54443C30.3178 6.54443 31.1501 6.88918 31.7637 7.50284C32.3774 8.11649 32.7221 8.94879 32.7221 9.81663V22.9054C32.7222 23.3407 32.6355 23.7716 32.4669 24.1729C32.2984 24.5743 32.0515 24.9379 31.7407 25.2427C31.4299 25.5474 31.0614 25.787 30.6568 25.9476C30.2522 26.1081 29.8197 26.1863 29.3845 26.1776Z" fill="#6D00B3"/>
<path d="M107.983 26.1776C107.115 26.1776 106.283 25.8329 105.669 25.2192C105.055 24.6056 104.71 23.7733 104.71 22.9054V9.81663C104.71 8.94879 105.055 8.11649 105.669 7.50284C106.283 6.88918 107.115 6.54443 107.983 6.54443C108.85 6.54443 109.683 6.88918 110.296 7.50284C110.91 8.11649 111.255 8.94879 111.255 9.81663V22.9054C111.255 23.7733 110.91 24.6056 110.296 25.2192C109.683 25.8329 108.85 26.1776 107.983 26.1776Z" fill="#6D00B3"/>
<path d="M94.8938 91.6215C96.701 91.6215 98.166 90.1565 98.166 88.3493C98.166 86.5422 96.701 85.0771 94.8938 85.0771C93.0866 85.0771 91.6216 86.5422 91.6216 88.3493C91.6216 90.1565 93.0866 91.6215 94.8938 91.6215Z" fill="#6D00B3"/>
<path d="M81.8049 91.6215C83.6121 91.6215 85.0771 90.1565 85.0771 88.3493C85.0771 86.5422 83.6121 85.0771 81.8049 85.0771C79.9977 85.0771 78.5327 86.5422 78.5327 88.3493C78.5327 90.1565 79.9977 91.6215 81.8049 91.6215Z" fill="#6D00B3"/>
<path d="M107.983 91.6215C109.79 91.6215 111.255 90.1565 111.255 88.3493C111.255 86.5422 109.79 85.0771 107.983 85.0771C106.175 85.0771 104.71 86.5422 104.71 88.3493C104.71 90.1565 106.175 91.6215 107.983 91.6215Z" fill="#6D00B3"/>
<path d="M68.716 91.6215C70.5232 91.6215 71.9883 90.1565 71.9883 88.3493C71.9883 86.5422 70.5232 85.0771 68.716 85.0771C66.9089 85.0771 65.4438 86.5422 65.4438 88.3493C65.4438 90.1565 66.9089 91.6215 68.716 91.6215Z" fill="#6D00B3"/>
<path d="M55.6272 91.6215C57.4344 91.6215 58.8994 90.1565 58.8994 88.3493C58.8994 86.5422 57.4344 85.0771 55.6272 85.0771C53.82 85.0771 52.355 86.5422 52.355 88.3493C52.355 90.1565 53.82 91.6215 55.6272 91.6215Z" fill="#6D00B3"/>
<path d="M42.5388 91.6215C44.346 91.6215 45.811 90.1565 45.811 88.3493C45.811 86.5422 44.346 85.0771 42.5388 85.0771C40.7316 85.0771 39.2666 86.5422 39.2666 88.3493C39.2666 90.1565 40.7316 91.6215 42.5388 91.6215Z" fill="#6D00B3"/>
<path d="M29.4499 91.6215C31.2571 91.6215 32.7221 90.1565 32.7221 88.3493C32.7221 86.5422 31.2571 85.0771 29.4499 85.0771C27.6427 85.0771 26.1777 86.5422 26.1777 88.3493C26.1777 90.1565 27.6427 91.6215 29.4499 91.6215Z" fill="#6D00B3"/>
<path d="M55.6272 104.71C57.4344 104.71 58.8994 103.245 58.8994 101.438C58.8994 99.6309 57.4344 98.1659 55.6272 98.1659C53.82 98.1659 52.355 99.6309 52.355 101.438C52.355 103.245 53.82 104.71 55.6272 104.71Z" fill="#6D00B3"/>
<path d="M42.5388 104.71C44.346 104.71 45.811 103.245 45.811 101.438C45.811 99.6309 44.346 98.1659 42.5388 98.1659C40.7316 98.1659 39.2666 99.6309 39.2666 101.438C39.2666 103.245 40.7316 104.71 42.5388 104.71Z" fill="#6D00B3"/>
<path d="M29.4499 104.71C31.2571 104.71 32.7221 103.245 32.7221 101.438C32.7221 99.6309 31.2571 98.1659 29.4499 98.1659C27.6427 98.1659 26.1777 99.6309 26.1777 101.438C26.1777 103.245 27.6427 104.71 29.4499 104.71Z" fill="#6D00B3"/>
<path d="M94.8938 78.5327C96.701 78.5327 98.166 77.0677 98.166 75.2605C98.166 73.4533 96.701 71.9883 94.8938 71.9883C93.0866 71.9883 91.6216 73.4533 91.6216 75.2605C91.6216 77.0677 93.0866 78.5327 94.8938 78.5327Z" fill="#6D00B3"/>
<path d="M81.8049 78.5327C83.6121 78.5327 85.0771 77.0677 85.0771 75.2605C85.0771 73.4533 83.6121 71.9883 81.8049 71.9883C79.9977 71.9883 78.5327 73.4533 78.5327 75.2605C78.5327 77.0677 79.9977 78.5327 81.8049 78.5327Z" fill="#6D00B3"/>
<path d="M107.983 78.5327C109.79 78.5327 111.255 77.0677 111.255 75.2605C111.255 73.4533 109.79 71.9883 107.983 71.9883C106.175 71.9883 104.71 73.4533 104.71 75.2605C104.71 77.0677 106.175 78.5327 107.983 78.5327Z" fill="#6D00B3"/>
<path d="M68.716 78.5327C70.5232 78.5327 71.9883 77.0677 71.9883 75.2605C71.9883 73.4533 70.5232 71.9883 68.716 71.9883C66.9089 71.9883 65.4438 73.4533 65.4438 75.2605C65.4438 77.0677 66.9089 78.5327 68.716 78.5327Z" fill="#6D00B3"/>
<path d="M55.6272 78.5327C57.4344 78.5327 58.8994 77.0677 58.8994 75.2605C58.8994 73.4533 57.4344 71.9883 55.6272 71.9883C53.82 71.9883 52.355 73.4533 52.355 75.2605C52.355 77.0677 53.82 78.5327 55.6272 78.5327Z" fill="#6D00B3"/>
<path d="M42.5388 78.5327C44.346 78.5327 45.811 77.0677 45.811 75.2605C45.811 73.4533 44.346 71.9883 42.5388 71.9883C40.7316 71.9883 39.2666 73.4533 39.2666 75.2605C39.2666 77.0677 40.7316 78.5327 42.5388 78.5327Z" fill="#6D00B3"/>
<path d="M29.4499 78.5327C31.2571 78.5327 32.7221 77.0677 32.7221 75.2605C32.7221 73.4533 31.2571 71.9883 29.4499 71.9883C27.6427 71.9883 26.1777 73.4533 26.1777 75.2605C26.1777 77.0677 27.6427 78.5327 29.4499 78.5327Z" fill="#6D00B3"/>
<path d="M94.8938 65.4439C96.701 65.4439 98.166 63.9789 98.166 62.1717C98.166 60.3645 96.701 58.8995 94.8938 58.8995C93.0866 58.8995 91.6216 60.3645 91.6216 62.1717C91.6216 63.9789 93.0866 65.4439 94.8938 65.4439Z" fill="#6D00B3"/>
<path d="M81.8049 65.4439C83.6121 65.4439 85.0771 63.9789 85.0771 62.1717C85.0771 60.3645 83.6121 58.8995 81.8049 58.8995C79.9977 58.8995 78.5327 60.3645 78.5327 62.1717C78.5327 63.9789 79.9977 65.4439 81.8049 65.4439Z" fill="#6D00B3"/>
<path d="M107.983 65.4439C109.79 65.4439 111.255 63.9789 111.255 62.1717C111.255 60.3645 109.79 58.8995 107.983 58.8995C106.175 58.8995 104.71 60.3645 104.71 62.1717C104.71 63.9789 106.175 65.4439 107.983 65.4439Z" fill="#6D00B3"/>
<path d="M68.716 65.4439C70.5232 65.4439 71.9883 63.9789 71.9883 62.1717C71.9883 60.3645 70.5232 58.8995 68.716 58.8995C66.9089 58.8995 65.4438 60.3645 65.4438 62.1717C65.4438 63.9789 66.9089 65.4439 68.716 65.4439Z" fill="#6D00B3"/>
<path d="M55.6272 65.4439C57.4344 65.4439 58.8994 63.9789 58.8994 62.1717C58.8994 60.3645 57.4344 58.8995 55.6272 58.8995C53.82 58.8995 52.355 60.3645 52.355 62.1717C52.355 63.9789 53.82 65.4439 55.6272 65.4439Z" fill="#6D00B3"/>
<path d="M42.5388 65.4439C44.346 65.4439 45.811 63.9789 45.811 62.1717C45.811 60.3645 44.346 58.8995 42.5388 58.8995C40.7316 58.8995 39.2666 60.3645 39.2666 62.1717C39.2666 63.9789 40.7316 65.4439 42.5388 65.4439Z" fill="#A9CC31"/>
<path d="M29.4499 65.4439C31.2571 65.4439 32.7221 63.9789 32.7221 62.1717C32.7221 60.3645 31.2571 58.8995 29.4499 58.8995C27.6427 58.8995 26.1777 60.3645 26.1777 62.1717C26.1777 63.9789 27.6427 65.4439 29.4499 65.4439Z" fill="#6D00B3"/>
<path d="M94.8938 52.3552C96.701 52.3552 98.166 50.8902 98.166 49.083C98.166 47.2758 96.701 45.8108 94.8938 45.8108C93.0866 45.8108 91.6216 47.2758 91.6216 49.083C91.6216 50.8902 93.0866 52.3552 94.8938 52.3552Z" fill="#6D00B3"/>
<path d="M81.8049 52.3552C83.6121 52.3552 85.0771 50.8902 85.0771 49.083C85.0771 47.2758 83.6121 45.8108 81.8049 45.8108C79.9977 45.8108 78.5327 47.2758 78.5327 49.083C78.5327 50.8902 79.9977 52.3552 81.8049 52.3552Z" fill="#6D00B3"/>
<path d="M107.983 52.3552C109.79 52.3552 111.255 50.8902 111.255 49.083C111.255 47.2758 109.79 45.8108 107.983 45.8108C106.175 45.8108 104.71 47.2758 104.71 49.083C104.71 50.8902 106.175 52.3552 107.983 52.3552Z" fill="#6D00B3"/>
<path d="M68.716 52.3552C70.5232 52.3552 71.9883 50.8902 71.9883 49.083C71.9883 47.2758 70.5232 45.8108 68.716 45.8108C66.9089 45.8108 65.4438 47.2758 65.4438 49.083C65.4438 50.8902 66.9089 52.3552 68.716 52.3552Z" fill="#6D00B3"/>
<path d="M55.6272 52.3552C57.4344 52.3552 58.8994 50.8902 58.8994 49.083C58.8994 47.2758 57.4344 45.8108 55.6272 45.8108C53.82 45.8108 52.355 47.2758 52.355 49.083C52.355 50.8902 53.82 52.3552 55.6272 52.3552Z" fill="#6D00B3"/>
<path d="M42.5388 52.3552C44.346 52.3552 45.811 50.8902 45.811 49.083C45.811 47.2758 44.346 45.8108 42.5388 45.8108C40.7316 45.8108 39.2666 47.2758 39.2666 49.083C39.2666 50.8902 40.7316 52.3552 42.5388 52.3552Z" fill="#6D00B3"/>
<path d="M117.799 91.6215C122.977 91.6215 128.038 93.1568 132.343 96.0333C136.647 98.9097 140.003 102.998 141.984 107.781C143.965 112.565 144.484 117.828 143.474 122.906C142.464 127.984 139.97 132.648 136.309 136.309C132.648 139.97 127.984 142.464 122.906 143.474C117.828 144.484 112.565 143.965 107.781 141.984C102.998 140.003 98.9097 136.647 96.0333 132.343C93.1568 128.038 91.6216 122.977 91.6216 117.799C91.6216 110.856 94.3795 104.198 99.2888 99.2888C104.198 94.3795 110.856 91.6215 117.799 91.6215ZM117.799 85.0771C111.327 85.0771 105.001 86.9963 99.6198 90.5918C94.2387 94.1873 90.0446 99.2978 87.568 105.277C85.0913 111.256 84.4433 117.835 85.7059 124.183C86.9685 130.53 90.085 136.361 94.6612 140.937C99.2375 145.513 105.068 148.63 111.415 149.892C117.763 151.155 124.342 150.507 130.321 148.03C136.3 145.554 141.411 141.36 145.006 135.978C148.602 130.597 150.521 124.271 150.521 117.799C150.521 113.502 149.675 109.247 148.03 105.277C146.386 101.307 143.976 97.6997 140.937 94.6612C137.899 91.6227 134.291 89.2124 130.321 87.568C126.351 85.9235 122.096 85.0771 117.799 85.0771Z" fill="#A9CC31"/>
<path d="M112.561 120.025C112.561 123.558 109.354 125.784 104.642 125.784C99.9305 125.784 96.6583 123.558 96.6583 120.025C96.6522 119.141 96.8943 118.274 97.3572 117.522C97.82 116.77 98.4849 116.163 99.2761 115.771C98.6618 115.364 98.1599 114.809 97.8167 114.157C97.4736 113.505 97.3003 112.777 97.3128 112.04C97.3128 108.834 100.323 106.739 104.642 106.739C108.962 106.739 111.907 108.834 111.907 112.04C111.919 112.777 111.746 113.505 111.403 114.157C111.06 114.809 110.558 115.364 109.943 115.771C110.745 116.15 111.418 116.754 111.883 117.509C112.348 118.265 112.583 119.138 112.561 120.025ZM107.391 120.025C107.391 118.585 106.279 117.734 104.642 117.734C103.006 117.734 101.894 118.585 101.894 120.025C101.894 121.464 103.006 122.25 104.642 122.25C106.279 122.25 107.391 121.268 107.391 119.894V120.025ZM102.483 112.433C102.483 113.006 102.71 113.555 103.115 113.96C103.52 114.365 104.07 114.593 104.642 114.593C105.215 114.593 105.765 114.365 106.17 113.96C106.575 113.555 106.802 113.006 106.802 112.433C106.804 112.158 106.747 111.885 106.636 111.633C106.526 111.381 106.363 111.156 106.16 110.97C105.956 110.785 105.716 110.645 105.454 110.559C105.193 110.473 104.916 110.442 104.642 110.47C104.378 110.433 104.108 110.452 103.851 110.527C103.594 110.601 103.356 110.729 103.152 110.902C102.948 111.075 102.783 111.289 102.668 111.531C102.553 111.772 102.489 112.035 102.483 112.302V112.433Z" fill="#A9CC31"/>
<path d="M113.739 111.909C113.816 110.995 114.157 110.123 114.722 109.4C115.287 108.678 116.05 108.135 116.919 107.84C117.788 107.545 118.723 107.51 119.612 107.739C120.5 107.968 121.302 108.452 121.919 109.13C122.537 109.808 122.943 110.652 123.088 111.558C123.232 112.464 123.11 113.392 122.734 114.229C122.359 115.066 121.748 115.776 120.975 116.27C120.203 116.765 119.303 117.023 118.386 117.014C117.732 117.027 117.083 116.901 116.482 116.643C115.881 116.385 115.342 116.001 114.902 115.517C114.462 115.034 114.131 114.461 113.93 113.839C113.729 113.217 113.664 112.559 113.739 111.909ZM129.249 107.066H132.98L120.48 125.39H116.75L129.249 107.066ZM119.956 111.909C119.956 110.077 119.302 109.357 118.386 109.357C117.469 109.357 116.88 110.077 116.88 111.909C116.88 113.741 117.535 114.527 118.386 114.527C119.236 114.527 119.956 113.807 119.956 111.909ZM126.501 120.548C126.501 119.298 126.997 118.099 127.881 117.216C128.764 116.332 129.963 115.836 131.213 115.836C132.462 115.836 133.661 116.332 134.545 117.216C135.428 118.099 135.925 119.298 135.925 120.548C135.925 121.797 135.428 122.996 134.545 123.879C133.661 124.763 132.462 125.26 131.213 125.26C129.963 125.26 128.764 124.763 127.881 123.879C126.997 122.996 126.501 121.797 126.501 120.548ZM132.718 120.548C132.718 118.715 132.063 117.995 131.213 117.995C130.362 117.995 129.642 118.715 129.642 120.548C129.642 122.38 130.296 123.165 131.213 123.165C132.129 123.165 132.849 122.445 132.849 120.548H132.718Z" fill="#A9CC31"/>
</svg>
