<svg width="157" height="157" viewBox="0 0 157 157" fill="none" xmlns="http://www.w3.org/2000/svg">
<g clip-path="url(#clip0)">
<path d="M91.5832 130.833H22.8957C18.5583 130.833 14.3985 129.11 11.3315 126.043C8.26453 122.976 6.5415 118.817 6.5415 114.479V35.9793C6.5415 31.6419 8.26453 27.4822 11.3315 24.4152C14.3985 21.3482 18.5583 19.6251 22.8957 19.6251H114.479C116.629 19.6165 118.76 20.0336 120.748 20.8524C122.736 21.6712 124.542 22.8755 126.062 24.3959C127.583 25.9162 128.787 27.7225 129.606 29.7106C130.425 31.6987 130.842 33.8292 130.833 35.9793V88.3126H124.291V35.9793C124.291 33.3769 123.258 30.881 121.417 29.0408C119.577 27.2006 117.081 26.1668 114.479 26.1668H22.8957C20.2932 26.1668 17.7974 27.2006 15.9572 29.0408C14.117 30.881 13.0832 33.3769 13.0832 35.9793V114.479C13.0832 117.082 14.117 119.578 15.9572 121.418C17.7974 123.258 20.2932 124.292 22.8957 124.292H91.5832V130.833Z" fill="#6D00B3"/>
<path d="M33.1004 69.5375C32.6176 69.5401 32.1409 69.4289 31.7091 69.213C31.2772 68.997 30.9023 68.6824 30.6146 68.2946L26.1663 63.1921C25.8828 62.8356 25.6723 62.4267 25.5468 61.9889C25.4213 61.551 25.3833 61.0927 25.435 60.6402C25.4866 60.1876 25.6269 59.7497 25.8477 59.3513C26.0686 58.953 26.3658 58.6021 26.7223 58.3186C27.4423 57.746 28.3603 57.483 29.2742 57.5872C29.7268 57.6389 30.1647 57.7791 30.5631 58C30.9614 58.2209 31.3124 58.5181 31.5959 58.8746L33.1659 60.8371L39.7075 53.1834C40.2863 52.5342 41.0957 52.1367 41.9633 52.0756C42.8309 52.0145 43.688 52.2946 44.3521 52.8563C44.679 53.1323 44.9473 53.471 45.1412 53.8524C45.3352 54.2338 45.4508 54.6501 45.4813 55.0769C45.5117 55.5037 45.4565 55.9322 45.3187 56.3373C45.181 56.7423 44.9635 57.1157 44.6792 57.4354L35.5863 68.36C35.2853 68.7285 34.906 69.0253 34.4761 69.229C34.0461 69.4326 33.5762 69.538 33.1004 69.5375Z" fill="#6D00B3"/>
<path d="M33.0985 89.1628C32.6157 89.1654 32.139 89.0542 31.7072 88.8383C31.2753 88.6224 30.9004 88.3077 30.6127 87.9199L26.5569 82.8174C26.2734 82.4867 26.0578 82.1033 25.9225 81.6893C25.7871 81.2752 25.7347 80.8386 25.7681 80.4043C25.8015 79.9699 25.9201 79.5464 26.1172 79.158C26.3143 78.7695 26.5859 78.4236 26.9167 78.1401C27.2474 77.8566 27.6307 77.6411 28.0448 77.5057C28.4588 77.3704 28.8955 77.3179 29.3298 77.3513C29.7642 77.3847 30.1876 77.5034 30.5761 77.7005C30.9646 77.8975 31.3105 78.1692 31.594 78.4999L33.164 80.5278L39.7056 72.8741C40.2608 72.2061 41.0586 71.7861 41.9235 71.7063C42.7884 71.6266 43.6495 71.8937 44.3175 72.4489C44.9855 73.0041 45.4055 73.8019 45.4853 74.6668C45.565 75.5317 45.2979 76.3928 44.7427 77.0608L35.5844 88.0508C35.2771 88.4073 34.8951 88.6917 34.4654 88.8839C34.0358 89.0761 33.5691 89.1713 33.0985 89.1628Z" fill="#6D00B3"/>
<path d="M33.1011 108.919C32.6182 108.921 32.1416 108.81 31.7097 108.594C31.2778 108.378 30.9029 108.064 30.6153 107.676L26.1669 102.573C25.6321 101.896 25.387 101.034 25.485 100.176C25.5831 99.3182 26.0163 98.534 26.6902 97.9943C27.0277 97.7193 27.4167 97.5145 27.8344 97.3918C28.252 97.2691 28.69 97.231 29.1225 97.2797C29.5551 97.3285 29.9736 97.4631 30.3535 97.6756C30.7334 97.8882 31.067 98.1745 31.3348 98.5176L32.9048 100.48L39.4465 92.8264C40.0252 92.1819 40.8279 91.7825 41.691 91.7096C42.5541 91.6367 43.4124 91.8957 44.0911 92.4339C44.7402 93.0127 45.1377 93.8221 45.1988 94.6897C45.2599 95.5572 44.9798 96.4144 44.4182 97.0785L35.5869 107.741C35.2859 108.11 34.9067 108.407 34.4767 108.61C34.0468 108.814 33.5768 108.919 33.1011 108.919Z" fill="#6D00B3"/>
<path d="M101.268 65.4167H55.4759C54.6084 65.4167 53.7765 65.0721 53.1631 64.4587C52.5497 63.8453 52.2051 63.0133 52.2051 62.1458C52.2051 61.2784 52.5497 60.4464 53.1631 59.833C53.7765 59.2196 54.6084 58.875 55.4759 58.875H101.268C102.135 58.875 102.967 59.2196 103.58 59.833C104.194 60.4464 104.538 61.2784 104.538 62.1458C104.538 63.0133 104.194 63.8453 103.58 64.4587C102.967 65.0721 102.135 65.4167 101.268 65.4167Z" fill="#6D00B3"/>
<path d="M101.268 85.0417H55.4759C54.6084 85.0417 53.7765 84.6971 53.1631 84.0837C52.5497 83.4703 52.2051 82.6383 52.2051 81.7708C52.2051 80.9034 52.5497 80.0714 53.1631 79.458C53.7765 78.8446 54.6084 78.5 55.4759 78.5H101.268C102.135 78.5 102.967 78.8446 103.58 79.458C104.194 80.0714 104.538 80.9034 104.538 81.7708C104.538 82.6383 104.194 83.4703 103.58 84.0837C102.967 84.6971 102.135 85.0417 101.268 85.0417Z" fill="#6D00B3"/>
<path d="M92.9572 104.667H55.6043C54.7368 104.667 53.9049 104.322 53.2915 103.709C52.6781 103.095 52.3335 102.263 52.3335 101.396C52.3335 100.528 52.6781 99.6964 53.2915 99.083C53.9049 98.4696 54.7368 98.125 55.6043 98.125H92.9572C93.8247 98.125 94.6567 98.4696 95.2701 99.083C95.8835 99.6964 96.2281 100.528 96.2281 101.396C96.2281 102.263 95.8835 103.095 95.2701 103.709C94.6567 104.322 93.8247 104.667 92.9572 104.667Z" fill="#6D00B3"/>
<path d="M94.8542 39.25H42.5208C41.6534 39.25 40.8214 38.9053 40.208 38.2919C39.5946 37.6785 39.25 36.8466 39.25 35.9791V9.81246C39.25 8.94498 39.5946 8.11303 40.208 7.49963C40.8214 6.88623 41.6534 6.54163 42.5208 6.54163H94.8542C95.7216 6.54163 96.5536 6.88623 97.167 7.49963C97.7804 8.11303 98.125 8.94498 98.125 9.81246V35.9791C98.125 36.8466 97.7804 37.6785 97.167 38.2919C96.5536 38.9053 95.7216 39.25 94.8542 39.25ZM45.7917 32.7083H91.5833V13.0833H45.7917V32.7083Z" fill="#6D00B3"/>
<path d="M117.75 91.5834C122.925 91.5834 127.984 93.1181 132.287 95.9933C136.59 98.8685 139.944 102.955 141.925 107.737C143.905 112.518 144.423 117.779 143.414 122.855C142.404 127.931 139.912 132.593 136.252 136.253C132.593 139.912 127.931 142.404 122.855 143.414C117.779 144.424 112.518 143.905 107.736 141.925C102.955 139.944 98.8683 136.591 95.9931 132.288C93.1178 127.984 91.5832 122.925 91.5832 117.75C91.5832 110.81 94.34 104.155 99.2472 99.2475C104.154 94.3403 110.81 91.5834 117.75 91.5834ZM117.75 85.0417C111.281 85.0417 104.957 86.9601 99.5781 90.5541C94.1992 94.1481 90.0069 99.2565 87.5313 105.233C85.0557 111.21 84.4079 117.786 85.67 124.131C86.9321 130.476 90.0472 136.304 94.6216 140.878C99.1959 145.453 105.024 148.568 111.369 149.83C117.714 151.092 124.29 150.444 130.267 147.969C136.243 145.493 141.352 141.301 144.946 135.922C148.54 130.543 150.458 124.219 150.458 117.75C150.458 113.455 149.612 109.201 147.968 105.233C146.325 101.265 143.915 97.659 140.878 94.6218C137.841 91.5845 134.235 89.1753 130.267 87.5315C126.298 85.8878 122.045 85.0417 117.75 85.0417Z" fill="#A9CC31"/>
<path d="M117.75 136.459C114.947 136.521 112.164 135.968 109.599 134.837C107.033 133.707 104.746 132.028 102.9 129.917C102.594 129.613 102.35 129.252 102.184 128.853C102.018 128.454 101.933 128.027 101.933 127.595C101.933 127.163 102.018 126.736 102.184 126.337C102.35 125.939 102.594 125.577 102.9 125.273C103.199 124.968 103.555 124.726 103.948 124.561C104.341 124.396 104.763 124.311 105.19 124.311C105.616 124.311 106.038 124.396 106.431 124.561C106.825 124.726 107.181 124.968 107.479 125.273C108.697 126.755 110.239 127.938 111.985 128.732C113.731 129.526 115.636 129.909 117.553 129.852C119.399 129.815 121.216 129.388 122.884 128.599C124.553 127.809 126.036 126.676 127.235 125.273C127.858 124.669 128.69 124.332 129.557 124.332C130.424 124.332 131.257 124.669 131.88 125.273C132.186 125.577 132.43 125.939 132.596 126.337C132.762 126.736 132.847 127.163 132.847 127.595C132.847 128.027 132.762 128.454 132.596 128.853C132.43 129.252 132.186 129.613 131.88 129.917C130.095 131.914 127.921 133.525 125.491 134.65C123.061 135.775 120.427 136.39 117.75 136.459Z" fill="#A9CC31"/>
<path d="M107.937 111.208C109.744 111.208 111.208 109.744 111.208 107.938C111.208 106.131 109.744 104.667 107.937 104.667C106.131 104.667 104.667 106.131 104.667 107.938C104.667 109.744 106.131 111.208 107.937 111.208Z" fill="#A9CC31"/>
<path d="M127.562 111.208C129.369 111.208 130.833 109.744 130.833 107.938C130.833 106.131 129.369 104.667 127.562 104.667C125.756 104.667 124.292 106.131 124.292 107.938C124.292 109.744 125.756 111.208 127.562 111.208Z" fill="#A9CC31"/>
</g>
<defs>
<clipPath id="clip0">
<rect width="157" height="157" fill="white"/>
</clipPath>
</defs>
</svg>
