<svg width="15" height="13" viewBox="0 0 15 13" fill="none" xmlns="http://www.w3.org/2000/svg">
<path d="M13.966 0.0988112C13.307 -0.256032 12.572 0.428309 12.1411 0.833844C11.1526 1.79699 10.3162 2.91221 9.37839 3.92605C8.33921 5.04127 7.37606 6.15649 6.31153 7.24641C5.70323 7.85471 5.2285 8.52349 4.6387 9.27409C3.72624 8.38694 2.94052 7.42379 1.92668 6.63811C1.19165 6.0805 -0.0249562 5.67496 0.000389799 7.0183C0.0510817 8.76721 1.59718 10.6428 2.73775 11.834C3.21933 12.3409 3.85297 12.8732 4.58801 12.8986C5.47512 12.9492 6.38757 11.8847 6.91983 11.3018C7.85768 10.2879 8.61805 9.14732 9.47977 8.10817C10.595 6.73949 11.7356 5.39611 12.8254 4.00209C13.5098 3.14032 15.6642 1.01122 13.966 0.0988112Z" fill="#A9CC31"/>
</svg>
