<svg width="28" height="28" viewBox="0 0 28 28" fill="none" xmlns="http://www.w3.org/2000/svg">
<g clip-path="url(#clip0)">
<path d="M23.4794 2.15053C24.108 2.15053 24.7108 2.40021 25.1552 2.84466C25.5997 3.2891 25.8493 3.8919 25.8493 4.52044V23.4797C25.8493 24.1082 25.5997 24.711 25.1552 25.1555C24.7108 25.5999 24.108 25.8496 23.4794 25.8496H4.52019C3.89165 25.8496 3.28886 25.5999 2.84441 25.1555C2.39997 24.711 2.15029 24.1082 2.15029 23.4797V4.52044C2.15029 3.8919 2.39997 3.2891 2.84441 2.84466C3.28886 2.40021 3.89165 2.15053 4.52019 2.15053H23.4794ZM22.2945 8.07529C22.7632 8.07529 23.2214 7.9363 23.6111 7.67589C24.0009 7.41548 24.3046 7.04536 24.484 6.61231C24.6634 6.17927 24.7103 5.70276 24.6189 5.24304C24.5274 4.78333 24.3017 4.36105 23.9703 4.02961C23.6388 3.69817 23.2165 3.47246 22.7568 3.38102C22.2971 3.28958 21.8206 3.33651 21.3876 3.51588C20.9545 3.69525 20.5844 3.99901 20.324 4.38874C20.0636 4.77847 19.9246 5.23666 19.9246 5.70539C19.9246 6.33393 20.1743 6.93672 20.6187 7.38116C21.0632 7.82561 21.6659 8.07529 22.2945 8.07529ZM13.9998 21.1098C15.406 21.1098 16.7806 20.6928 17.9498 19.9116C19.1189 19.1303 20.0302 18.02 20.5683 16.7208C21.1065 15.4217 21.2473 13.9922 20.9729 12.613C20.6986 11.2339 20.0215 9.96704 19.0271 8.97273C18.0328 7.97842 16.766 7.30128 15.3869 7.02695C14.0077 6.75262 12.5782 6.89342 11.279 7.43154C9.97991 7.96965 8.86953 8.88092 8.0883 10.0501C7.30708 11.2193 6.8901 12.5939 6.8901 14.0001C6.8901 15.8857 7.63915 17.6941 8.97249 19.0274C10.3058 20.3607 12.1142 21.1098 13.9998 21.1098ZM23.4794 0.965576H4.52019C3.57738 0.965576 2.67319 1.3401 2.00653 2.00677C1.33986 2.67344 0.965332 3.57763 0.965332 4.52044V23.4797C0.965332 24.4225 1.33986 25.3267 2.00653 25.9933C2.67319 26.66 3.57738 27.0345 4.52019 27.0345H23.4794C24.4222 27.0345 25.3264 26.66 25.9931 25.9933C26.6598 25.3267 27.0343 24.4225 27.0343 23.4797V4.52044C27.0343 3.57763 26.6598 2.67344 25.9931 2.00677C25.3264 1.3401 24.4222 0.965576 23.4794 0.965576V0.965576ZM22.2945 6.89034C22.0601 6.89034 21.831 6.82084 21.6362 6.69064C21.4413 6.56044 21.2894 6.37537 21.1997 6.15885C21.11 5.94233 21.0866 5.70407 21.1323 5.47422C21.178 5.24436 21.2909 5.03322 21.4566 4.8675C21.6223 4.70178 21.8335 4.58893 22.0633 4.5432C22.2932 4.49748 22.5314 4.52095 22.7479 4.61063C22.9645 4.70032 23.1495 4.8522 23.2797 5.04706C23.4099 5.24193 23.4794 5.47103 23.4794 5.70539C23.4794 6.01966 23.3546 6.32105 23.1324 6.54328C22.9102 6.7655 22.6088 6.89034 22.2945 6.89034ZM13.9998 19.9248C12.828 19.9248 11.6825 19.5773 10.7082 18.9263C9.73387 18.2753 8.97448 17.35 8.52605 16.2674C8.07761 15.1848 7.96028 13.9935 8.18889 12.8442C8.4175 11.6949 8.98178 10.6392 9.81037 9.81062C10.639 8.98202 11.6947 8.41775 12.844 8.18914C13.9932 7.96053 15.1845 8.07786 16.2671 8.52629C17.3497 8.97472 18.2751 9.73411 18.9261 10.7084C19.5771 11.6828 19.9246 12.8283 19.9246 14.0001C19.9246 14.7781 19.7713 15.5485 19.4736 16.2674C19.1758 16.9862 18.7394 17.6393 18.1893 18.1895C17.6391 18.7397 16.986 19.1761 16.2671 19.4738C15.5483 19.7716 14.7779 19.9248 13.9998 19.9248V19.9248Z" fill="#A9CC31"/>
</g>
<defs>
<clipPath id="clip0">
<rect width="28" height="28" fill="white"/>
</clipPath>
</defs>
</svg>
