<svg width="326" height="80" viewBox="0 0 326 80" fill="none" xmlns="http://www.w3.org/2000/svg">
<path d="M98.2626 74.5846L98.2119 48.3299C97.5153 48.7843 96.7898 49.193 96.0401 49.5532C95.6636 49.7523 95.2424 49.852 94.8166 49.8428C94.4449 49.8497 94.0756 49.7815 93.7308 49.6424C93.3861 49.5034 93.0729 49.2962 92.81 49.0334C92.5471 48.7705 92.3399 48.4573 92.2008 48.1126C92.0617 47.7679 91.9936 47.3986 92.0005 47.0269C92.0031 46.5072 92.1675 46.0012 92.471 45.5792C92.9198 45.0054 93.4663 44.5153 94.0854 44.1315L98.2554 41.5762C100.954 39.9584 103.821 38.6392 106.805 37.642C110.07 36.5127 112.832 35.9481 115.091 35.9481C116.196 35.9154 117.296 36.1101 118.323 36.52C119.192 36.9036 119.626 37.3729 119.626 37.9279C119.594 39.5602 119.243 40.6388 118.584 41.16C117.925 41.6812 116.915 42.0648 115.561 42.3073L111.236 43.1398C110.319 43.3518 109.414 43.6128 108.525 43.9215C107.376 44.3052 106.021 44.7878 104.46 45.3693C104.597 46.7591 104.692 48.132 104.746 49.4881C104.796 50.8417 104.825 52.1628 104.825 53.4477C106.629 52.509 108.513 51.7326 110.454 51.1276C112.573 50.4496 114.262 50.0937 115.521 50.0599C117.57 50.0599 119.238 50.703 120.524 51.9891C121.81 53.2751 122.453 54.9642 122.453 57.0561C122.453 60.1157 119.847 64.7002 114.635 70.8097C109.422 76.9191 105.146 79.9666 101.806 79.9521C100.557 79.9521 99.6345 79.5251 99.0987 78.6745C98.563 77.824 98.2626 76.4595 98.2626 74.5846ZM104.622 60.9288L104.485 71.6638C109.311 67.7742 112.395 64.8908 113.737 63.0136C115.079 61.1364 115.741 59.3786 115.724 57.7402C115.738 57.4862 115.675 57.2341 115.543 57.0163C115.42 56.8426 115.029 56.7557 114.37 56.7557C112.751 56.741 111.148 57.0691 109.665 57.7185C107.863 58.5852 106.17 59.6628 104.622 60.9288Z" fill="#FFF001"/>
<path d="M144.422 72.5506C143.276 73.8704 141.634 74.9996 139.496 75.9383C137.358 76.8769 135.438 77.3462 133.737 77.3462C131.131 77.3462 129.037 76.5125 127.457 74.8452C125.876 73.1779 125.084 70.765 125.082 67.6065C125.082 63.437 126.316 59.8177 128.785 56.7485C131.254 53.6793 133.982 52.1411 136.969 52.1338C138.145 52.1073 139.292 52.5056 140.198 53.2558C140.625 53.5834 140.97 54.0057 141.205 54.4893C141.441 54.973 141.561 55.5048 141.555 56.0427C141.519 57.5725 140.746 59.4401 139.235 61.6455C137.725 63.8508 135.338 66.5304 132.075 69.684C132.323 70.2844 132.728 70.807 133.248 71.1969C133.735 71.4601 134.284 71.5852 134.837 71.5588C135.806 71.537 136.765 71.361 137.679 71.0377C139.159 70.4902 140.581 69.7941 141.921 68.9602C142.822 68.439 143.622 68.3811 144.317 68.7792C144.658 68.9735 144.936 69.2601 145.121 69.6059C145.305 69.9518 145.388 70.3427 145.36 70.7336C145.358 71.0239 145.286 71.3095 145.15 71.5661C144.953 71.9254 144.708 72.2566 144.422 72.5506ZM133.997 60.4076L134.935 59.2096L135.612 58.1238C134.779 58.0201 133.911 58.5594 133.006 59.7417C132.101 60.924 131.649 62.0701 131.652 63.1801C133.322 61.2015 134.12 60.2629 134.048 60.3642C133.979 60.4583 133.961 60.4764 133.997 60.4076Z" fill="#FFF001"/>
<path d="M156.06 64.5771L154.757 65.9308C154.689 66.9418 154.654 67.8623 154.652 68.6923C154.649 69.5223 154.684 70.6697 154.757 72.1343C154.789 74.0091 154.471 75.3917 153.79 76.3291C153.461 76.7821 153.023 77.1458 152.518 77.3872C152.012 77.6286 151.454 77.7401 150.895 77.7117C149.921 77.7117 149.211 77.3968 148.759 76.7707C148.306 76.1445 148.082 74.8778 148.082 72.9668C148.082 72.4842 148.125 71.2078 148.212 69.1375C148.299 67.0672 148.376 64.8172 148.444 62.3874V58.1021C148.411 56.4336 148.679 55.2971 149.255 54.6891C149.605 54.3643 150.016 54.112 150.464 53.9467C150.912 53.7814 151.388 53.7063 151.865 53.7258C152.342 53.7453 152.811 53.859 153.243 54.0604C153.676 54.2617 154.065 54.5467 154.388 54.899C155.013 55.6446 155.254 56.6954 155.112 58.0514C158.029 56.0729 159.839 54.9352 160.541 54.6384C161.16 54.3643 161.821 54.1967 162.496 54.1425C162.821 54.1342 163.143 54.2058 163.434 54.3509C163.725 54.496 163.976 54.7103 164.164 54.975C164.625 55.6715 164.876 56.4854 164.888 57.3203C166.239 56.2039 167.668 55.1855 169.163 54.2728C170.275 53.6286 171.212 53.292 171.976 53.2558C173.297 53.2558 174.245 53.6575 174.817 54.4538C175.389 55.2501 175.679 56.4698 175.679 58.1021C175.679 61.3354 175.558 63.577 175.317 64.8269C175.087 65.9589 174.966 67.1102 174.955 68.2652C174.955 68.9601 174.955 69.5356 175.006 69.9844C175.025 70.3593 175.113 70.7274 175.266 71.0702L175.527 71.747C175.735 72.293 175.827 72.8765 175.796 73.4601C175.765 74.0436 175.611 74.6142 175.346 75.1347C174.808 76.2447 173.774 76.8009 172.244 76.8033C170.89 76.8033 169.899 76.3689 169.272 75.5003C168.644 74.6317 168.332 73.3806 168.334 71.747C168.334 70.9846 168.404 69.6816 168.544 67.8381C168.684 65.9947 168.788 63.9799 168.856 61.7938V61.0338C168.823 60.6139 168.794 60.3714 168.78 60.3099C168.765 60.2484 168.736 60.2049 168.7 60.2049C168.422 60.2049 167.841 60.5958 166.955 61.3776C166.165 62.0623 165.425 62.8025 164.74 63.5927V64.4541C164.74 64.6785 164.773 65.558 164.841 67.0853C164.841 68.1277 164.878 69.0072 164.946 69.7166C165.015 70.426 165.069 71.063 165.106 71.6204C165.069 73.4252 164.707 74.7801 164.02 75.6849C163.325 76.5897 162.507 77.0385 161.569 77.0385C160.425 77.0385 159.589 76.6766 159.068 75.9527C158.547 75.2289 158.286 74.0779 158.286 72.5143C158.259 70.6956 158.337 68.8768 158.521 67.0672C158.661 66.0559 158.74 65.037 158.757 64.0161C158.763 63.7723 158.736 63.5288 158.677 63.2922C158.626 63.1185 158.565 63.0317 158.496 63.0317C158.069 63.1504 157.67 63.3534 157.323 63.6288C156.875 63.9067 156.452 64.2241 156.06 64.5771Z" fill="#FFF001"/>
<path d="M185.474 54.9859L186.411 56.6544C186.932 57.6195 187.294 58.2795 187.497 58.6342C187.7 58.9889 187.941 59.3508 188.221 59.72C189.689 58.0405 191.313 56.5039 193.071 55.1306C194.805 53.777 196.112 53.0821 196.981 53.0459C197.528 53.0181 198.072 53.1549 198.541 53.4387C199.01 53.7226 199.383 54.1404 199.612 54.6384C200.153 55.6977 199.971 56.7135 199.066 57.6859L191.924 65.1924C192.293 65.7062 192.702 66.1902 193.147 66.6402C193.606 67.0915 194.089 67.5169 194.595 67.9142L196.68 69.6876C197.197 70.1578 197.63 70.7137 197.958 71.3308C198.249 71.8923 198.418 72.509 198.454 73.1405C198.466 73.5759 198.383 74.0086 198.212 74.4091C198.041 74.8096 197.785 75.1682 197.462 75.4605C196.744 76.0901 195.81 76.417 194.856 76.3726C194.2 76.3742 193.551 76.2321 192.955 75.9564C192.343 75.6765 190.895 74.2167 188.612 71.5769L187.83 70.6938C187.446 71.3164 187.084 71.9244 186.744 72.5035C186.404 73.0826 185.995 73.8752 185.546 74.8488L183.772 78.4428C183.602 78.7703 183.362 79.0566 183.069 79.2817C182.777 79.5067 182.438 79.6651 182.078 79.7458C181.748 79.8403 181.398 79.8469 181.064 79.7651C180.73 79.6832 180.424 79.5156 180.174 79.2789C179.673 78.8927 179.331 78.3366 179.211 77.7154C179.088 77.088 179.254 76.1325 179.707 74.8488L180.793 71.6674C181.165 70.5495 181.601 69.4535 182.096 68.3847C182.579 67.3423 183.135 66.2831 183.765 65.2069C182.182 63.2138 180.712 61.1343 179.36 58.978C178.51 57.5303 178.084 56.4264 178.082 55.6663C178.091 54.7241 178.454 53.8199 179.099 53.1328C179.412 52.7646 179.8 52.4673 180.237 52.2608C180.674 52.0542 181.15 51.9431 181.633 51.9348C182.369 52.0162 183.061 52.3249 183.613 52.8179C184.352 53.4293 184.981 54.1625 185.474 54.9859Z" fill="#FFF001"/>
<path d="M214.303 56.9656L213.261 56.81C212.081 56.6363 211.655 55.8291 211.983 54.3886C212.311 52.9481 213.623 52.2243 215.918 52.217C218.039 52.2532 219.89 53.3221 221.47 55.4238C223.051 57.5254 223.841 60.2616 223.841 63.6325C223.807 67.4545 222.783 70.7372 220.768 73.4807C218.753 76.2242 216.302 77.5971 213.416 77.5995C210.704 77.5995 208.307 76.4184 206.224 74.0562C204.198 71.8574 203.075 68.975 203.082 65.985C203.082 63.7266 203.707 61.3028 204.957 58.7138C206.207 56.1247 207.602 54.835 209.141 54.8447C209.53 54.8497 209.913 54.9382 210.264 55.1044C210.615 55.2705 210.926 55.5103 211.176 55.8074C211.701 56.313 212.033 56.9866 212.113 57.7112C212.081 57.8162 212.044 57.9211 212.008 58.0225C211.83 58.3546 211.622 58.6696 211.386 58.9635L210.76 59.7959C210.272 60.4724 209.934 61.2447 209.768 62.0617C209.529 63.0256 209.408 64.0148 209.406 65.0078C209.374 66.9188 209.87 68.4558 210.893 69.6189C211.917 70.7819 213.038 71.3646 214.256 71.367C215.463 71.367 216.47 70.6202 217.279 69.1266C218.087 67.633 218.486 65.8089 218.477 63.6542C218.477 61.7769 218.115 60.2472 217.391 59.0648C217.069 58.504 216.623 58.0237 216.089 57.66C215.554 57.2964 214.943 57.0589 214.303 56.9656Z" fill="#FFF001"/>
<path d="M240.946 54.0991C243.067 53.4404 244.908 53.736 246.469 54.9859C248.031 56.2357 248.831 58.1986 248.869 60.8745C248.869 63.7266 247.235 67.2796 243.968 71.5335C240.701 75.7875 237.418 77.9337 234.119 77.9723C231.406 77.9723 229.556 75.9214 228.566 71.8194C227.577 67.7175 227.082 60.8733 227.082 51.2869C227.082 47.0498 227.724 43.9915 229.008 42.1118C230.292 40.2322 232.238 39.2948 234.846 39.2996C237.279 39.2996 239.295 40.0548 240.895 41.5653C242.495 43.0758 243.294 45.1521 243.291 47.7942C243.308 48.9748 243.115 50.149 242.719 51.2616C242.319 52.3142 241.717 53.2783 240.946 54.0991ZM233.598 58.6884L234.535 58.1673C233.524 56.6737 233.671 54.9448 234.977 52.9807C236.282 51.0166 236.934 49.4097 236.931 48.1598C236.935 47.4356 236.794 46.7181 236.515 46.0497C236.438 45.833 236.297 45.6446 236.111 45.5096C235.925 45.3745 235.702 45.2991 235.473 45.2932C234.814 45.2932 234.319 45.6757 233.988 46.4406C233.623 47.4215 233.471 48.4691 233.543 49.5134V56.4988C233.543 57.1575 233.561 57.8874 233.598 58.6884ZM242.285 61.0845C242.312 60.7379 242.231 60.3913 242.053 60.0928C241.968 59.9851 241.857 59.9004 241.73 59.8461C241.604 59.7917 241.466 59.7696 241.329 59.7815L240.938 59.8865C240.815 59.9178 239.661 60.9952 237.474 63.1185C236.953 63.6689 236.356 64.1418 235.701 64.5228C235.177 64.7965 234.6 64.9521 234.01 64.9789C234.184 67.1698 234.393 68.638 234.636 69.3836C234.879 70.1292 235.19 70.502 235.574 70.502C236.339 70.502 237.65 69.3824 239.509 67.1432C241.367 64.9041 242.297 62.8845 242.299 61.0845H242.285Z" fill="#FFF001"/>
<path d="M271.422 72.5505C270.274 73.8704 268.631 74.9996 266.496 75.9383C264.36 76.8769 262.44 77.3462 260.737 77.3462C258.131 77.3462 256.036 76.5125 254.453 74.8452C252.87 73.1779 252.08 70.765 252.082 67.6065C252.082 63.437 253.315 59.8177 255.781 56.7485C258.248 53.6793 260.976 52.141 263.966 52.1338C265.143 52.1074 266.29 52.5057 267.198 53.2558C267.625 53.5834 267.97 54.0057 268.205 54.4893C268.441 54.973 268.561 55.5048 268.555 56.0427C268.519 57.5725 267.746 59.4401 266.235 61.6454C264.725 63.8508 262.339 66.5304 259.079 69.684C259.327 70.2844 259.732 70.807 260.252 71.1969C260.738 71.4604 261.288 71.5856 261.841 71.5588C262.81 71.5366 263.769 71.3607 264.682 71.0377C266.16 70.4898 267.579 69.7937 268.917 68.9602C269.822 68.439 270.622 68.3811 271.317 68.7792C271.658 68.9735 271.936 69.2601 272.121 69.6059C272.305 69.9517 272.388 70.3427 272.36 70.7336C272.356 71.0237 272.284 71.3089 272.15 71.5661C271.951 71.9245 271.707 72.2555 271.422 72.5505ZM260.997 60.4076L261.935 59.2096L262.612 58.1238C261.779 58.0189 260.907 58.5581 260.006 59.7417C259.104 60.9252 258.648 62.0689 258.648 63.1801C260.316 61.2015 261.116 60.2629 261.048 60.3642C260.979 60.4583 260.961 60.4764 260.997 60.4076Z" fill="#FFF001"/>
<path d="M283.226 62.2825L284.789 61.5586C287.256 60.4125 288.594 59.761 288.804 59.6042L289.528 59.054C289.426 55.5095 289.618 53.1207 290.103 51.8877C290.28 51.3298 290.637 50.8461 291.117 50.5116C291.598 50.1772 292.175 50.0108 292.76 50.0382C293.542 50.0374 294.296 50.3321 294.87 50.8634C295.143 51.1356 295.355 51.4616 295.494 51.8206C295.633 52.1796 295.696 52.5637 295.678 52.9482C295.648 53.032 295.631 53.1199 295.627 53.2088C295.627 53.2775 295.591 53.6757 295.522 54.4068C295.452 54.7236 295.409 55.0456 295.392 55.3695C295.376 55.7606 295.384 56.1522 295.417 56.5422C295.417 56.8209 295.417 56.9512 295.392 56.9331C295.366 56.915 295.678 60.3317 296.304 67.1758L296.564 70.198C296.842 73.4626 296.73 75.5305 296.228 76.4016C295.721 77.2702 294.827 77.719 293.542 77.7552C293.094 77.7547 292.654 77.6482 292.255 77.4443C291.857 77.2405 291.513 76.9451 291.251 76.5825C290.623 75.8007 290.223 74.68 290.049 73.2202C289.921 72.0701 289.86 70.9136 289.868 69.7564C289.849 68.1736 289.874 66.4097 289.944 64.465L284.152 67.9576C283.979 68.0626 283.79 68.1639 283.58 68.2689C284.239 73.2732 284.569 75.7404 284.569 75.6704C284.572 76.1221 284.484 76.5699 284.31 76.9867C284.136 77.4034 283.879 77.7806 283.555 78.0954C282.898 78.7067 282.027 79.0344 281.13 79.0075C280.735 79.0214 280.342 78.9544 279.974 78.8106C279.606 78.6668 279.271 78.4493 278.991 78.1714C278.437 77.6177 278.158 76.7816 278.158 75.6704V74.3892C278.144 73.8143 278.101 73.2405 278.028 72.67C277.941 71.9051 277.881 71.1233 277.847 70.3247C277.119 70.3693 276.399 70.1566 275.812 69.7239C275.569 69.5166 275.377 69.2557 275.252 68.9619C275.126 68.668 275.07 68.3491 275.089 68.03C275.047 67.3332 275.202 66.6388 275.534 66.0249C275.983 65.4312 276.587 64.9718 277.278 64.6966C277.246 64.0343 277.217 62.9919 277.202 61.5695C277.188 60.1471 277.202 58.7717 277.228 57.4507C277.228 55.4697 277.523 54.0364 278.115 53.1509C278.397 52.7191 278.784 52.3659 279.24 52.1242C279.695 51.8824 280.205 51.76 280.721 51.7683C281.095 51.7667 281.465 51.8534 281.799 52.0213C282.134 52.1892 282.424 52.4336 282.647 52.7346C283.183 53.425 283.46 54.2821 283.428 55.156C283.395 55.6386 283.369 56.1344 283.352 56.6435C283.334 57.1466 283.309 57.6425 283.273 58.1275C283.24 58.9635 283.211 59.7019 283.197 60.3425C283.182 60.9831 283.19 61.6238 283.226 62.2825Z" fill="#FFF001"/>
<path d="M315.716 57.4868L316.498 57.2262C317.019 57.0525 317.652 56.8209 318.402 56.5241C319.196 56.2134 320.005 55.944 320.827 55.717L321.869 55.4564C322.946 55.2151 323.779 55.267 324.371 55.612C324.593 55.7507 324.783 55.9343 324.93 56.151C325.077 56.3677 325.177 56.6127 325.224 56.8704C325.271 57.128 325.263 57.3926 325.202 57.6471C325.14 57.9016 325.026 58.1404 324.867 58.3482C324.448 58.7888 323.941 59.1355 323.379 59.3653L322.753 59.6765C321.609 60.2701 320.341 60.8866 318.948 61.526C317.556 62.1654 316.497 62.6263 315.77 62.9086C315.734 63.466 315.691 63.9184 315.64 64.2622C315.589 64.5734 315.563 64.888 315.56 65.2033L315.354 68.2254C315.249 69.4741 314.909 70.4151 314.337 71.0377C314.074 71.3382 313.748 71.5781 313.383 71.7405C313.018 71.903 312.622 71.9843 312.223 71.9787C311.736 71.983 311.256 71.8601 310.832 71.622C310.407 71.3839 310.052 71.039 309.801 70.6214C309.196 69.7214 308.772 68.3147 308.531 66.4013L307.698 66.7632C306.446 67.3182 305.333 67.7609 304.361 68.0915C303.725 68.3468 303.058 68.5171 302.377 68.5982C302.076 68.6241 301.773 68.5837 301.489 68.4799C301.205 68.3761 300.947 68.2114 300.734 67.9974C300.526 67.7992 300.361 67.5605 300.248 67.2959C300.136 67.0313 300.08 66.7465 300.082 66.4592C300.074 65.9143 300.245 65.3817 300.567 64.9427C300.95 64.4482 301.447 64.0544 302.015 63.7953L304.466 62.5973L304.672 62.4924C304.745 62.4562 305.197 62.1956 306.03 61.7106C306.272 61.5731 306.54 61.4247 306.837 61.2654L308.48 60.4076L308.686 58.9599C309.35 54.1341 309.976 51.2929 310.565 50.4363C310.806 50.045 311.143 49.722 311.544 49.4983C311.945 49.2746 312.397 49.1576 312.856 49.1587C313.239 49.1688 313.616 49.2546 313.965 49.4111C314.314 49.5677 314.629 49.7919 314.891 50.0708C315.203 50.3797 315.448 50.7504 315.61 51.1592C315.771 51.568 315.845 52.0059 315.828 52.4451C315.828 52.807 315.828 53.4512 315.777 54.3199C315.727 55.1885 315.723 55.9341 315.723 56.5603L315.716 57.4868Z" fill="#FFF001"/>
<path d="M73.9111 50.4544C76.083 50.3314 77.7227 49.7993 78.3634 49.2239C78.7585 48.9205 79.0309 48.4849 79.1308 47.9969C79.1529 47.8445 79.1529 47.6897 79.1308 47.5372C79.303 47.4029 79.4575 47.2472 79.5905 47.074C79.8041 46.8025 79.9235 46.6505 79.8982 46.4623C79.865 46.3027 79.814 46.1473 79.7461 45.999L79.7099 45.9158C79.6701 45.8289 79.348 45.3439 79.2864 45.2317L79.0729 44.9458L78.3489 44.0048C78.6602 42.2783 78.3055 41.4097 77.8892 40.9319C77.4965 40.6021 77.1332 40.2388 76.8033 39.8461C76.424 39.4063 76.1603 38.8789 76.0359 38.3115C75.9528 37.9544 75.9528 37.5829 76.0359 37.2257C76.168 36.7836 76.3749 36.3674 76.6477 35.9951C76.7925 35.8154 76.8974 35.6069 76.9553 35.3835C77.0012 35.1809 77.0012 34.9707 76.9553 34.7682C76.0731 35.6675 75.0325 36.3963 73.8858 36.9181C73.4865 37.099 73.0753 37.2526 72.6551 37.3777C72.541 36.7546 72.3875 36.1392 72.1954 35.5355C72.1418 35.3546 72.0345 35.1943 71.8877 35.0758C71.7552 34.9758 71.594 34.9212 71.428 34.9202C71.262 34.9277 71.1015 34.9816 70.9647 35.0758C70.6601 35.2777 70.3992 35.5386 70.1973 35.8431C69.991 36.1399 69.6905 36.567 69.2779 37.0701C69.0643 37.2185 68.7494 37.432 68.3549 37.6854C67.5585 38.1957 67.269 38.326 66.8201 38.6083C66.1462 39.0436 65.5276 39.5589 64.9777 40.1429C64.1089 41.0116 64.0365 41.3337 63.4393 41.9852C63.233 42.2132 62.5525 42.9298 60.5218 43.983C59.0466 44.7393 57.5039 45.356 55.9139 45.8253C53.0181 46.7193 51.5702 47.1681 49.6192 47.6675C47.3388 48.2503 41.9381 49.9405 38.2533 54.5769C36.5262 56.7695 35.3663 59.3539 34.8761 62.1015C34.6697 63.2886 33.8336 68.9023 37.0262 73.6183C41.6305 80.4263 51.6535 80.9836 58.064 78.993C59.4902 78.5514 64.7062 76.8503 68.3549 71.624C69.003 70.6905 69.5663 69.7009 70.038 68.667C70.9466 66.7306 71.6995 64.3817 71.428 64.2514C71.1565 64.1211 70.2227 66.1081 68.0472 69.1665C66.0925 71.9172 65.1152 73.2925 63.5949 74.5412C60.6376 76.9698 57.4414 77.6068 55.7619 77.918C53.619 78.3198 50.4771 78.9061 47.0094 77.4584C45.9234 77.0132 43.5598 75.9853 41.9418 73.4771C40.4468 71.1535 40.4251 68.8516 40.407 66.7198C40.381 63.9003 41.0118 61.1134 42.2494 58.5799C44.1824 54.7759 47.0021 52.807 48.8554 51.5185C51.0743 49.9694 53.6805 49.1515 57.7636 47.6784C59.9788 46.8785 61.5245 46.4297 62.9832 44.9132C63.7071 44.1568 63.87 43.7044 65.441 41.996C66.6608 40.6713 67.2726 40.0054 68.0508 39.5385C68.8291 39.0716 69.3431 38.9739 69.8933 38.3115C70.3892 37.7143 70.6172 37.0448 70.9792 37.081C71.171 37.1027 71.3049 37.3198 71.4425 37.5442C71.7755 38.0871 71.6561 38.4925 71.9022 38.63C72.094 38.7278 72.351 38.5721 72.5176 38.4744C73.1552 38.1121 73.8224 37.8045 74.512 37.5551C74.391 37.8457 74.339 38.1603 74.36 38.4744C74.3781 38.7133 74.4577 39.1621 75.2794 40.1646C76.1011 41.1672 76.2241 40.9862 76.5101 41.5472C76.7577 42.0806 76.9132 42.6521 76.9698 43.2375C76.963 43.6054 77.0156 43.972 77.1255 44.3233C77.292 44.653 77.4974 44.9616 77.7372 45.2426C78.291 46.0135 78.3634 46.1329 78.3525 46.3284C78.3344 46.6252 78.139 46.6577 78.0449 47.0957C77.9508 47.5336 78.0847 47.6096 78.0449 47.863C77.9471 48.5398 76.9372 48.9271 76.5101 49.0936C76.083 49.2601 76.0251 49.2094 74.512 49.5532C73.6288 49.7559 73.2994 49.8536 73.2849 50.0129C73.2705 50.1721 73.6071 50.335 73.9111 50.4544Z" fill="#FFF001"/>
<path d="M16.2779 17.7174C15.5749 19.2671 14.762 20.7645 13.8454 22.1982C12.8696 23.7032 11.792 25.1398 10.6202 26.498C8.9805 28.456 8.33257 28.9555 7.39506 30.0304C4.77438 33.0309 3.68847 36.1689 2.78716 38.782C1.80259 41.6268 1.49854 43.7188 0.944718 47.6892C0.4291 51.3546 0.120933 55.0462 0.0216894 58.7463C-0.115681 65.1761 0.399753 71.6032 1.56007 77.9289C1.66866 78.508 1.94738 79.9268 2.32745 79.9268C2.47586 79.9268 2.58807 79.7096 2.63513 79.6191C3.72105 77.4475 3.72105 67.9503 3.72105 67.9503C3.72105 67.8019 3.8224 65.8547 4.02872 61.9603C4.33278 56.1513 4.39069 55.3188 4.48843 54.4357C4.87212 50.5268 5.43679 47.6929 5.57434 47.0631C6.01831 44.5523 6.68579 42.0861 7.56881 39.6941C8.29276 37.8338 8.74884 36.6032 9.71893 35.0867C11.413 32.4445 12.6509 32.0175 14.7865 29.2523C15.8479 27.8652 16.7671 26.375 17.5303 24.8041C16.7414 22.5215 16.3187 20.1285 16.2779 17.7138V17.7174Z" fill="#FFF001"/>
<path d="M61.4556 31.413C62.2619 30.6844 63.0303 29.9149 63.7577 29.1075C64.6968 28.2426 65.5226 27.2625 66.2155 26.1903C66.9079 25.2101 67.4293 24.1198 67.7575 22.9655C67.991 22.0114 68.0945 21.0301 68.0652 20.0483C68.0637 19.1763 68.0129 18.305 67.9132 17.4387C67.8589 16.932 67.8046 16.5122 67.7575 16.2082C67.9106 15.6551 68.0136 15.0894 68.0652 14.5179C68.1376 13.7325 68.1738 13.338 68.0652 12.9833C67.6127 11.4994 65.1405 11.0687 64.688 10.9891C63.9351 10.8552 63.2655 10.8986 61.9225 10.9891C60.8366 11.0578 60.5796 11.1447 59.005 11.2967C56.5147 11.532 56.2468 11.3981 56.0875 11.2967C55.3636 10.8298 55.1971 9.84898 54.8568 7.91624C54.5817 6.33097 54.8062 6.3744 54.5528 5.61434C53.9121 3.69608 52.247 2.67181 51.7873 2.3895C51.0692 1.96831 50.292 1.6572 49.4816 1.46657C46.5858 0.648594 45.1379 0.239608 43.6466 0.0839758C40.8484 -0.167255 38.0282 0.146608 35.3538 1.00691C32.0394 2.02478 28.9625 3.696 26.3045 5.92198C25.9135 6.23325 25.5805 6.50108 25.3814 6.68929C24.3161 6.91855 23.2845 7.28346 22.3119 7.77509C21.1057 8.33974 20.0127 9.11983 19.0867 10.077C17.4868 11.7745 17.0597 13.6384 16.6109 15.5929C16.4552 16.2769 16.2489 18.0577 16.2489 18.0577C16.2039 19.4416 16.2777 20.8269 16.4697 22.1982C16.6688 23.6206 16.8317 24.0079 17.085 24.3481C17.3365 24.6648 17.6508 24.926 18.0081 25.1154C19.7709 26.0745 23.4376 25.8972 23.9951 25.8827C25.8556 25.8429 28.4835 26.773 31.8282 31.1054C32.1725 31.2624 32.5386 31.3661 32.9141 31.413C33.2206 31.4515 33.5306 31.4515 33.8371 31.413C34.1991 31.3624 36.1393 29.6034 38.2894 26.65C38.3555 26.4002 38.4051 26.1463 38.4378 25.8899C38.5939 24.3905 38.2639 22.8806 37.4967 21.5829C37.1573 20.2733 36.901 18.9435 36.7293 17.6016C36.5555 16.2371 36.6388 15.9584 36.4216 13.3018C36.237 11.0361 36.1284 9.90326 35.6542 8.85003C35.4479 8.39038 35.2452 7.9271 35.0389 7.46744C34.6298 6.54813 34.4669 6.20429 34.5792 5.77721C34.6242 5.61423 34.702 5.46215 34.8078 5.33023C34.9136 5.19831 35.0452 5.08932 35.1945 5.00991C35.4294 4.9213 35.685 4.90322 35.93 4.95787C36.175 5.01252 36.3987 5.13753 36.5736 5.31755C36.8679 5.53118 37.13 5.78592 37.3519 6.074C39.3174 8.7306 37.0333 13.4249 37.5039 13.5986C37.7464 13.6891 38.3907 12.4368 38.4269 12.3717C39.0399 11.1405 39.2538 9.74879 39.0387 8.39038C38.9409 7.8149 38.5283 5.38994 36.5809 4.4091C36.4071 4.31861 34.876 3.54045 33.971 4.25708C33.2471 4.83618 33.2688 6.12467 33.5113 6.86663C33.7251 7.39812 33.9818 7.91134 34.2787 8.40124C34.4542 8.69729 34.6078 9.00576 34.7384 9.32417C34.8776 9.6747 34.9807 10.0385 35.0461 10.41C35.0461 10.41 35.2452 11.3438 35.3538 12.2522C35.486 13.7332 35.486 15.223 35.3538 16.704C35.2416 18.1518 35.0533 19.3968 35.2633 20.888C35.2633 21.0074 35.314 21.2246 35.3538 21.4671C35.6072 22.9836 35.8823 23.8197 35.9691 24.2286C36.3311 26.0383 34.9411 28.5719 33.6634 28.6841C32.9756 28.7347 32.6716 28.0434 31.2056 26.6862C30.1197 25.6872 28.9686 24.6195 27.6763 24.0766C24.5272 22.7592 22.5363 25.0321 20.4369 23.617C18.8913 22.5203 18.7139 20.2799 18.6053 18.9733C18.4692 16.7239 19.1206 14.4972 20.4478 12.6757C20.8387 12.1183 22.3843 9.90689 25.0557 8.99119C26.0258 8.66183 26.4601 8.73422 27.5135 8.22389C29.0229 7.50002 29.8337 6.53003 30.5866 5.76635C31.9844 4.35375 33.5895 3.16256 35.3465 2.23387C39.7517 -0.00288906 44.9316 1.93346 46.5677 2.54151C48.6563 3.32329 50.1874 3.89515 51.3312 5.45871C52.3013 6.79063 53.4777 9.50152 53.6334 11.6116C53.6295 12.0645 53.7932 12.5028 54.0931 12.8422C54.6795 13.4104 55.6604 13.2584 56.3988 13.1498C58.5806 12.7757 60.7879 12.57 63.0012 12.5345C65.173 12.5707 65.7993 13.0087 66.0744 13.4575C66.3032 13.8796 66.4098 14.3571 66.382 14.8364C66.3458 15.4372 66.1106 15.5603 66.0744 16.3747C66.0744 16.4217 66.0744 16.4 66.0744 17.294V18.0613C66.0831 18.6277 66.1339 19.1926 66.2264 19.7515C66.3458 20.6455 66.049 21.4635 65.611 22.6687C65.1462 23.9182 64.5273 25.1049 63.7686 26.2012C62.9143 27.5078 62.5379 27.8009 61.4665 29.426C61.3289 29.6359 60.5253 30.32 60.2358 31.4239C60.1851 31.6266 60.0692 32.079 60.2358 32.1912C60.4023 32.3034 60.8801 31.9234 61.4556 31.413Z" fill="#FFF001"/>
</svg>
