<svg width="26" height="26" viewBox="0 0 26 26" fill="none" xmlns="http://www.w3.org/2000/svg">
<path d="M5.04559 1.39262C5.63309 1.4522 6.20123 1.63598 6.71232 1.93177C7.22342 2.22756 7.66581 2.62862 8.01016 3.10834C8.68057 3.82877 9.03742 4.78597 9.00224 5.76945C8.94388 6.01455 8.83884 6.11959 8.54705 6.39971C7.95745 6.89744 7.55419 7.5805 7.40324 8.33718C6.843 10.9166 9.08394 13.1108 11.0681 15.0366C13.0523 16.9624 14.8147 18.7015 17.1256 18.7015C17.3679 18.6995 17.6098 18.68 17.8493 18.6431C18.6061 18.5021 19.3045 18.1407 19.8568 17.6044C20.1836 17.3243 20.312 17.2192 20.5921 17.1842H20.8022C21.8817 17.3024 22.8753 17.8285 23.58 18.6548C23.9235 18.9793 24.1978 19.3699 24.3863 19.8032C24.5749 20.2364 24.6738 20.7034 24.6771 21.1759C24.5244 21.8497 24.2097 22.4761 23.7602 23.0009C23.3108 23.5256 22.7401 23.9328 22.0977 24.1871C21.4099 24.4883 20.6659 24.6394 19.9151 24.6306C14.5696 24.6306 8.0335 18.223 7.96347 18.1529C7.89344 18.0829 -0.650119 9.50434 1.76589 4.06541C2.02448 3.39648 2.44602 2.80272 2.99226 2.33801C3.5385 1.8733 4.19214 1.55235 4.89386 1.4043H5.04559V1.39262ZM5.04559 0.237143H4.8355C3.91555 0.393962 3.05174 0.785845 2.32783 1.37479C1.60392 1.96373 1.04449 2.72974 0.703779 3.59854C-2.01569 9.73777 6.6796 18.5264 7.16981 18.9699C7.66001 19.4135 14.1727 25.7745 19.9385 25.7745C20.8548 25.7865 21.7627 25.5993 22.5996 25.2259C23.4322 24.89 24.1663 24.349 24.7337 23.6531C25.301 22.9572 25.683 22.1291 25.8443 21.2459C26.0543 18.5965 23.1014 15.9587 20.8255 15.9587C20.7052 15.9467 20.584 15.9467 20.4637 15.9587C19.1565 16.1221 19.0748 17.1258 17.6625 17.4176C17.4918 17.4354 17.3197 17.4354 17.149 17.4176C15.3049 17.4176 13.6475 15.7486 11.9084 14.0912C10.1694 12.4339 8.1152 10.4847 8.53538 8.54727C8.81549 7.25173 9.8776 7.24006 10.146 6.00288C10.6246 3.77362 7.91679 0.167114 5.04559 0.167114V0.237143Z" fill="#6D00B3"/>
</svg>
