<svg width="27" height="26" viewBox="0 0 27 26" fill="none" xmlns="http://www.w3.org/2000/svg">
<path d="M5.56707 1.22551C6.15458 1.28509 6.72271 1.46887 7.23381 1.76466C7.7449 2.06045 8.18729 2.4615 8.53164 2.94123C9.20205 3.66166 9.5589 4.61885 9.52372 5.60233C9.46536 5.84744 9.36032 5.95248 9.06853 6.2326C8.47893 6.73032 8.07568 7.41339 7.92472 8.17007C7.36449 10.7495 9.60542 12.9437 11.5896 14.8695C13.5737 16.7953 15.3361 18.5344 17.6471 18.5344C17.8894 18.5323 18.1312 18.5128 18.3707 18.476C19.1276 18.335 19.8259 17.9736 20.3782 17.4373C20.7051 17.1571 20.8334 17.0521 21.1136 17.0171H21.3236C22.4032 17.1353 23.3968 17.6614 24.1015 18.4877C24.445 18.8122 24.7193 19.2028 24.9078 19.636C25.0964 20.0693 25.1953 20.5363 25.1986 21.0088C25.0459 21.6826 24.7312 22.309 24.2817 22.8337C23.8322 23.3585 23.2616 23.7657 22.6192 24.02C21.9314 24.3211 21.1874 24.4723 20.4366 24.4635C15.091 24.4635 8.55499 18.0559 8.48496 17.9858C8.41493 17.9158 -0.128634 9.33722 2.28737 3.89829C2.54596 3.22937 2.96751 2.6356 3.51375 2.17089C4.05998 1.70618 4.71362 1.38524 5.41534 1.23718H5.56707V1.22551ZM5.56707 0.0700291H5.35699C4.43704 0.226848 3.57322 0.618731 2.84932 1.20767C2.12541 1.79662 1.56597 2.56263 1.22526 3.43143C-1.4942 9.57065 7.20109 18.3593 7.69129 18.8028C8.1815 19.2464 14.6942 25.6073 20.4599 25.6073C21.3762 25.6194 22.2842 25.4322 23.1211 25.0588C23.9537 24.7229 24.6878 24.1819 25.2551 23.486C25.8225 22.7901 26.2045 21.962 26.3657 21.0788C26.5758 18.4293 23.6229 15.7916 21.347 15.7916C21.2267 15.7796 21.1055 15.7796 20.9852 15.7916C19.678 15.955 19.5963 16.9587 18.184 17.2505C18.0133 17.2683 17.8412 17.2683 17.6705 17.2505C15.8263 17.2505 14.169 15.5815 12.4299 13.9241C10.6909 12.2668 8.63669 10.3176 9.05686 8.38016C9.33698 7.08462 10.3991 7.07295 10.6675 5.83576C11.1461 3.6065 8.43827 0 5.56707 0V0.0700291Z" fill="#A9CC31"/>
</svg>
