<svg width="27" height="27" viewBox="0 0 27 27" fill="none" xmlns="http://www.w3.org/2000/svg">
<path d="M5.26142 1.6458C5.8699 1.70751 6.45833 1.89785 6.98768 2.20421C7.51703 2.51056 7.97521 2.92594 8.33186 3.4228C9.02622 4.16896 9.39581 5.16034 9.35937 6.17894C9.29893 6.4328 9.19014 6.54159 8.88793 6.83172C8.27727 7.34722 7.85961 8.05468 7.70327 8.83838C7.12302 11.5099 9.44399 13.7825 11.499 15.7771C13.554 17.7717 15.3794 19.5729 17.7729 19.5729C18.0238 19.5707 18.2743 19.5505 18.5224 19.5124C19.3062 19.3663 20.0295 18.992 20.6016 18.4366C20.94 18.1464 21.073 18.0376 21.3631 18.0014H21.5807C22.6988 18.1238 23.7279 18.6686 24.4577 19.5245C24.8135 19.8605 25.0976 20.2651 25.2929 20.7139C25.4882 21.1626 25.5906 21.6462 25.5941 22.1356C25.4359 22.8335 25.11 23.4823 24.6444 24.0258C24.1789 24.5692 23.5879 24.991 22.9225 25.2544C22.2102 25.5663 21.4396 25.7229 20.662 25.7137C15.1255 25.7137 8.35604 19.0772 8.28351 19.0047C8.21098 18.9322 -0.63771 10.0472 1.86458 4.41404C2.13241 3.72123 2.56901 3.10626 3.13475 2.62495C3.7005 2.14364 4.37749 1.81124 5.10427 1.65789H5.26142V1.6458ZM5.26142 0.449056H5.04382C4.09102 0.611476 3.19636 1.01735 2.4466 1.62733C1.69683 2.23731 1.11742 3.03068 0.764541 3.93051C-2.05205 10.289 6.95379 19.3915 7.4615 19.8509C7.96921 20.3102 14.7145 26.8984 20.6862 26.8984C21.6352 26.9109 22.5756 26.717 23.4423 26.3303C24.3047 25.9824 25.0651 25.422 25.6526 24.7013C26.2402 23.9806 26.6359 23.1229 26.8029 22.2081C27.0205 19.4641 23.9621 16.7321 21.6049 16.7321C21.4803 16.7196 21.3548 16.7196 21.2302 16.7321C19.8763 16.9013 19.7916 17.9409 18.3289 18.2431C18.1521 18.2616 17.9739 18.2616 17.7971 18.2431C15.8871 18.2431 14.1705 16.5145 12.3694 14.798C10.5682 13.0814 8.44066 11.0626 8.87584 9.05598C9.16596 7.71417 10.266 7.70208 10.544 6.42071C11.0397 4.11183 8.23515 0.376526 5.26142 0.376526V0.449056Z" fill="#6D00B3"/>
</svg>
